<?xml version="1.0" standalone="no"?>
<!DOCTYPE svg PUBLIC "-//W3C//DTD SVG 20010904//EN"
 "http://www.w3.org/TR/2001/REC-SVG-20010904/DTD/svg10.dtd">
<svg version="1.0" xmlns="http://www.w3.org/2000/svg"
 width="706.000000pt" height="941.000000pt" viewBox="0 0 706.000000 941.000000"
 preserveAspectRatio="xMidYMid meet">

<g transform="translate(0.000000,941.000000) scale(0.100000,-0.100000)"
fill="#000000" stroke="none">
<path d="M2630 9399 c0 -5 5 -7 10 -4 6 3 10 8 10 11 0 2 -4 4 -10 4 -5 0 -10
-5 -10 -11z"/>
<path d="M2715 9400 c3 -5 8 -10 11 -10 2 0 4 5 4 10 0 6 -5 10 -11 10 -5 0
-7 -4 -4 -10z"/>
<path d="M2793 9394 c-3 -8 -12 -13 -19 -10 -8 3 -14 1 -14 -4 0 -6 -6 -10
-14 -10 -21 0 -23 -29 -5 -100 13 -54 17 -61 24 -41 5 16 3 26 -6 32 -8 5 -9
9 -4 10 68 9 66 9 63 -19 -2 -16 -12 -31 -25 -37 -26 -11 -35 -39 -19 -55 8
-9 8 -11 -3 -8 -7 2 -16 -3 -18 -10 -4 -9 1 -10 22 -2 34 13 33 14 38 -12 l4
-23 2 23 c0 13 6 20 11 17 6 -3 10 3 10 13 0 11 7 22 15 26 8 3 15 0 15 -7 0
-7 6 -1 13 13 7 14 10 26 6 28 -3 1 -4 14 -1 28 3 18 8 22 17 14 9 -8 11 -4 7
16 -3 19 -1 25 7 20 6 -4 11 0 11 9 0 11 -5 15 -15 11 -8 -3 -15 -1 -15 5 0 6
-9 22 -19 35 l-19 24 -6 -24 c-9 -38 -46 -31 -47 9 -1 16 -1 33 0 38 2 13 -10
7 -16 -9z m-26 -40 c-3 -3 -12 -4 -19 -1 -8 3 -5 6 6 6 11 1 17 -2 13 -5z m23
-28 c0 -3 -4 -8 -10 -11 -5 -3 -10 -1 -10 4 0 6 5 11 10 11 6 0 10 -2 10 -4z
m37 -12 c-3 -3 -12 -4 -19 -1 -8 3 -5 6 6 6 11 1 17 -2 13 -5z m47 -39 c-4 -8
-8 -15 -10 -15 -2 0 -4 7 -4 15 0 8 4 15 10 15 5 0 7 -7 4 -15z"/>
<path d="M2940 9405 c0 -5 5 -17 10 -25 5 -8 10 -10 10 -5 0 6 -5 17 -10 25
-5 8 -10 11 -10 5z"/>
<path d="M2147 9380 c3 -11 7 -20 9 -20 2 0 4 9 4 20 0 11 -4 20 -9 20 -5 0
-7 -9 -4 -20z"/>
<path d="M2175 9389 c-11 -16 -1 -19 13 -3 7 8 8 14 3 14 -5 0 -13 -5 -16 -11z"/>
<path d="M2299 9398 c0 -2 -2 -23 -3 -48 -2 -25 -1 -39 1 -32 8 21 23 2 23
-29 0 -16 5 -29 11 -29 6 0 9 7 5 15 -3 8 -1 15 3 15 5 0 11 -7 15 -15 3 -8
13 -15 21 -15 9 0 13 -4 10 -10 -3 -5 -1 -10 5 -10 8 0 7 -6 -1 -21 -8 -15 -8
-19 0 -15 7 5 11 -2 11 -19 0 -33 -28 -45 -46 -20 -8 10 -14 14 -14 9 0 -6 5
-15 12 -22 9 -9 8 -12 -5 -12 -23 0 -40 37 -34 75 5 32 -9 54 -44 68 -10 4
-10 6 -1 6 6 1 12 6 12 12 0 6 -7 8 -15 5 -11 -4 -17 2 -21 22 -8 38 -34 54
-59 36 -10 -8 -15 -17 -11 -21 4 -4 11 -1 15 6 6 9 11 10 15 2 4 -6 11 -9 15
-7 3 3 7 -3 7 -13 0 -10 -6 -18 -12 -18 -7 0 -10 6 -7 14 3 7 0 13 -6 13 -14
0 -14 -27 -1 -35 6 -4 10 -25 8 -47 -2 -32 -7 -42 -31 -55 -31 -16 -48 -10
-29 9 7 7 12 23 12 36 0 19 -3 22 -13 13 -8 -6 -17 -8 -20 -4 -4 3 -7 -3 -7
-15 0 -12 -4 -22 -10 -22 -5 0 -10 -5 -10 -12 0 -6 3 -9 6 -6 3 4 22 -10 43
-30 32 -31 37 -42 37 -78 -1 -33 2 -40 12 -32 9 8 12 5 12 -11 0 -26 8 -27 27
-3 8 9 12 11 8 5 -7 -15 11 -18 20 -3 3 5 12 7 21 3 12 -4 14 0 8 21 -5 22 -3
26 14 26 24 0 55 -27 47 -41 -4 -5 1 -9 9 -9 9 0 16 -5 16 -11 0 -5 -5 -7 -10
-4 -7 4 -8 -3 -4 -22 8 -34 14 -42 14 -20 0 10 8 17 20 17 12 0 20 -6 19 -12
-9 -69 21 -92 32 -24 5 32 3 37 -18 42 -12 4 -23 10 -23 14 0 9 39 2 55 -10 9
-7 22 -7 54 1 8 3 18 -8 24 -25 8 -25 7 -32 -12 -47 -29 -24 -39 -74 -16 -83
25 -9 47 13 42 41 -2 13 0 26 5 29 5 3 7 12 4 20 -7 18 3 46 14 39 5 -3 6 -15
3 -28 -4 -20 -3 -20 7 -4 7 10 10 36 8 58 -2 27 0 38 8 35 9 -3 8 3 -2 22 -8
15 -10 30 -4 36 13 17 -13 109 -27 95 -13 -13 -36 -3 -28 12 4 5 2 9 -4 9 -11
0 -16 -17 -25 -83 -4 -31 -2 -38 9 -33 9 3 15 0 15 -8 0 -8 3 -22 7 -32 4 -11
3 -15 -5 -10 -6 3 -15 -2 -21 -11 -8 -15 -12 -16 -23 -4 -11 12 -10 13 2 6 9
-5 12 -4 7 1 -5 5 -18 9 -30 9 -19 0 -23 8 -30 50 -10 67 -15 185 -7 185 3 0
11 -5 18 -12 9 -9 12 -9 12 1 0 19 -28 43 -41 35 -7 -4 -9 -3 -6 3 10 15 -66
69 -83 58 -5 -3 -11 -1 -15 5 -5 9 -23 14 -26 8z"/>
<path d="M2560 9390 c0 -5 5 -10 11 -10 5 0 7 5 4 10 -3 6 -8 10 -11 10 -2 0
-4 -4 -4 -10z"/>
<path d="M2091 9364 c0 -11 3 -14 6 -6 3 7 2 16 -1 19 -3 4 -6 -2 -5 -13z"/>
<path d="M2056 9332 c-2 -4 -1 -14 4 -22 7 -11 9 -9 7 8 -1 24 -3 26 -11 14z"/>
<path d="M1860 9319 c0 -5 5 -7 10 -4 6 3 10 1 10 -5 0 -6 5 -8 10 -5 6 4 8
11 5 16 -8 12 -35 11 -35 -2z"/>
<path d="M2591 9316 c-8 -10 -8 -16 3 -25 11 -9 15 -6 18 14 6 28 -3 32 -21
11z"/>
<path d="M1995 9290 c3 -5 8 -10 11 -10 2 0 4 5 4 10 0 6 -5 10 -11 10 -5 0
-7 -4 -4 -10z"/>
<path d="M2481 9284 c0 -11 3 -14 6 -6 3 7 2 16 -1 19 -3 4 -6 -2 -5 -13z"/>
<path d="M2547 9283 c-4 -3 -7 -11 -7 -17 0 -6 5 -5 12 2 6 6 9 14 7 17 -3 3
-9 2 -12 -2z"/>
<path d="M2934 9264 c18 -17 23 -18 23 -1 0 7 -9 14 -19 14 -16 2 -16 0 -4
-13z"/>
<path d="M1590 9258 c0 -6 3 -9 6 -5 4 3 15 -4 26 -16 l19 -22 -17 28 c-17 28
-34 36 -34 15z"/>
<path d="M3336 9262 c-2 -4 -1 -14 5 -22 7 -12 9 -10 9 8 0 23 -5 28 -14 14z"/>
<path d="M2970 9243 c0 -7 -7 -10 -15 -7 -8 4 -15 1 -15 -4 0 -16 18 -24 26
-11 4 8 9 7 15 -2 5 -8 9 -9 9 -4 0 6 -5 17 -10 25 -6 9 -10 11 -10 3z"/>
<path d="M1410 9221 c0 -6 4 -13 10 -16 6 -3 7 1 4 9 -7 18 -14 21 -14 7z"/>
<path d="M3075 9220 c6 -9 -13 -14 -40 -11 -6 0 -16 -8 -23 -19 -8 -13 -8 -20
-1 -20 5 0 7 -5 3 -12 -4 -7 -3 -8 5 -4 6 4 9 12 6 17 -4 5 -3 9 2 9 4 0 14
-12 21 -27 7 -17 8 -23 1 -16 -8 8 -18 8 -35 1 -35 -16 -29 -30 11 -25 19 3
33 1 32 -3 -1 -4 3 -10 8 -11 6 -2 11 13 13 33 3 33 1 37 -15 31 -12 -5 -9 2
10 20 32 33 32 33 11 41 -8 3 -12 2 -9 -4z"/>
<path d="M3336 9209 c3 -6 1 -15 -6 -19 -9 -5 -8 -9 3 -13 10 -4 16 2 20 19 3
16 0 24 -10 24 -8 0 -11 -5 -7 -11z"/>
<path d="M2934 9176 c-3 -8 -4 -23 -2 -33 3 -11 6 -6 9 15 6 34 2 42 -7 18z"/>
<path d="M1920 9166 c0 -8 -3 -23 -6 -33 -4 -14 -4 -15 4 -4 5 7 14 11 20 7 6
-4 8 2 5 14 -7 25 -23 37 -23 16z"/>
<path d="M2890 9170 c0 -5 5 -10 10 -10 6 0 10 5 10 10 0 6 -4 10 -10 10 -5 0
-10 -4 -10 -10z"/>
<path d="M3291 9171 c-9 -6 -10 -11 -2 -15 6 -4 11 -1 11 6 0 9 3 9 10 -2 5
-8 10 -10 11 -5 0 6 5 -1 9 -15 8 -24 8 -24 9 -3 1 25 -28 46 -48 34z"/>
<path d="M2681 9154 c0 -11 3 -14 6 -6 3 7 2 16 -1 19 -3 4 -6 -2 -5 -13z"/>
<path d="M2861 9153 c0 -5 4 -17 9 -28 8 -18 9 -17 9 8 1 15 -3 27 -9 27 -5 0
-10 -3 -9 -7z"/>
<path d="M1715 9140 c3 -5 8 -10 11 -10 2 0 4 5 4 10 0 6 -5 10 -11 10 -5 0
-7 -4 -4 -10z"/>
<path d="M3250 9121 c0 -4 -11 -6 -25 -3 -22 4 -25 1 -25 -22 0 -16 -5 -26
-15 -26 -8 0 -15 -7 -15 -15 0 -8 -8 -15 -17 -15 -16 0 -16 2 -3 10 11 7 1 9
-32 6 -30 -2 -48 0 -48 7 0 6 -7 2 -15 -9 -13 -18 -14 -18 -15 -1 0 10 -4 16
-9 12 -5 -3 -12 -1 -16 5 -10 17 -25 11 -18 -7 6 -16 5 -16 -10 -4 -21 17 -89
7 -81 -13 3 -7 0 -25 -6 -40 -5 -15 -6 -25 -1 -22 4 3 13 -6 20 -20 11 -26 35
-25 24 1 -3 8 0 15 6 15 6 0 10 -6 9 -12 -2 -7 5 -12 15 -10 9 2 17 -2 17 -8
0 -5 -6 -10 -12 -10 -9 0 -8 -4 2 -10 13 -9 13 -11 0 -20 -8 -5 -21 -10 -29
-10 -9 0 -11 -6 -6 -17 4 -10 10 -28 12 -41 8 -33 22 -37 17 -3 -4 23 -1 30
18 34 12 4 24 5 25 3 2 -2 5 -24 7 -50 3 -42 16 -79 16 -47 0 7 5 9 11 5 8 -4
9 0 4 15 -7 22 11 26 28 6 5 -5 6 2 3 18 -5 22 -3 27 13 27 11 0 23 5 26 10 4
6 10 8 15 5 15 -9 19 24 5 39 -20 19 -19 27 2 19 10 -4 14 -2 10 5 -4 6 6 25
23 43 18 21 30 44 30 61 0 20 7 31 23 37 14 6 23 18 25 35 1 14 0 26 -3 26 -3
0 -5 -4 -5 -9z m-277 -98 c-3 -7 -10 -10 -15 -7 -6 4 -14 0 -19 -7 -7 -11 -9
-9 -9 7 0 14 6 20 24 20 15 0 22 -5 19 -13z m97 7 c0 -5 -5 -10 -11 -10 -5 0
-7 5 -4 10 3 6 8 10 11 10 2 0 4 -4 4 -10z m-37 -16 c-2 -7 -11 -10 -19 -7
-17 6 -11 20 10 20 8 0 12 -6 9 -13z m-3 -64 c0 -11 -2 -20 -4 -20 -2 0 -6 9
-9 20 -3 11 -1 20 4 20 5 0 9 -9 9 -20z"/>
<path d="M2110 9096 c0 -9 -12 -19 -26 -22 -19 -5 -22 -9 -12 -15 20 -13 24
-11 42 15 10 15 12 27 6 31 -6 3 -10 -1 -10 -9z"/>
<path d="M2771 9084 c0 -11 3 -14 6 -6 3 7 2 16 -1 19 -3 4 -6 -2 -5 -13z"/>
<path d="M3090 9085 c0 -8 4 -15 9 -15 5 0 11 7 15 15 3 9 0 15 -9 15 -8 0
-15 -7 -15 -15z"/>
<path d="M1832 9059 c1 -31 2 -32 11 -11 7 16 7 26 -1 34 -8 8 -10 2 -10 -23z"/>
<path d="M1929 9088 c-1 -2 -3 -22 -5 -45 -3 -36 -1 -41 13 -36 12 5 14 3 8
-8 -7 -11 -6 -12 6 -2 13 10 19 7 39 -19 19 -26 21 -34 10 -51 -10 -17 -10
-19 4 -14 9 4 16 1 16 -5 0 -6 6 -5 17 3 15 13 15 12 4 -10 -11 -20 -10 -26 4
-40 15 -15 16 -15 9 2 -10 28 6 19 18 -10 9 -23 12 -25 15 -10 4 14 8 16 19 6
12 -10 13 -9 8 5 -3 9 -9 16 -13 16 -4 0 -16 7 -27 16 -10 8 -13 13 -6 9 7 -4
12 1 12 14 0 11 9 27 21 35 18 12 20 19 11 43 -7 18 -11 22 -11 10 -1 -11 -5
-15 -13 -11 -8 5 -9 2 -5 -10 5 -14 3 -17 -8 -12 -8 3 -15 1 -15 -4 0 -6 -4
-10 -10 -10 -5 0 -10 10 -10 21 0 15 -4 19 -12 12 -9 -6 -26 4 -53 31 -21 22
-32 37 -24 34 9 -3 22 -2 30 3 12 8 12 10 -1 8 -28 -3 -41 1 -35 10 3 5 1 12
-5 16 -5 3 -10 5 -11 3z"/>
<path d="M2081 9024 c0 -11 3 -14 6 -6 3 7 2 16 -1 19 -3 4 -6 -2 -5 -13z"/>
<path d="M3422 9020 c0 -14 2 -19 5 -12 2 6 2 18 0 25 -3 6 -5 1 -5 -13z"/>
<path d="M2052 9005 c0 -16 2 -22 5 -12 2 9 2 23 0 30 -3 6 -5 -1 -5 -18z"/>
<path d="M2768 9022 c-10 -2 -18 -10 -18 -19 0 -9 -6 -13 -14 -10 -28 11 -55
-50 -36 -82 8 -14 10 -14 11 -1 1 8 3 20 4 25 2 6 4 19 5 30 1 11 4 15 7 8 2
-7 13 -13 24 -13 11 0 19 -7 19 -17 0 -14 2 -15 9 -4 5 7 14 10 20 7 6 -4 11
0 11 8 0 9 -4 17 -10 17 -5 1 -14 2 -20 3 -15 2 -15 9 -2 31 11 19 11 19 12
-2 0 -13 4 -23 9 -23 5 0 16 -3 25 -6 9 -3 16 -1 16 4 0 6 -10 14 -22 18 l-23
8 25 6 c25 6 25 7 -5 11 -16 2 -38 3 -47 1z"/>
<path d="M1761 9003 c7 -12 15 -20 18 -17 3 2 -3 12 -13 22 -17 16 -18 16 -5
-5z"/>
<path d="M2200 9010 c0 -5 5 -10 11 -10 5 0 7 5 4 10 -3 6 -8 10 -11 10 -2 0
-4 -4 -4 -10z"/>
<path d="M2460 8987 c0 -9 7 -14 15 -13 20 3 20 20 1 24 -9 2 -16 -3 -16 -11z"/>
<path d="M3390 8992 c0 -5 7 -15 15 -22 8 -7 15 -8 15 -2 0 5 -7 15 -15 22 -8
7 -15 8 -15 2z"/>
<path d="M1354 8929 c1 -22 13 -49 27 -66 13 -16 32 -40 42 -53 10 -14 15 -19
12 -12 -3 6 0 12 7 13 7 0 3 4 -9 9 -13 5 -23 16 -23 24 0 8 -12 24 -27 35
-16 11 -22 21 -14 21 9 0 10 4 3 13 -5 6 -12 21 -15 32 -3 11 -4 4 -3 -16z"/>
<path d="M1860 8935 c0 -5 5 -17 10 -25 5 -8 10 -10 10 -5 0 6 -5 17 -10 25
-5 8 -10 11 -10 5z"/>
<path d="M1910 8933 c0 -4 5 -15 10 -23 8 -13 10 -13 10 2 0 9 -4 20 -10 23
-5 3 -10 3 -10 -2z"/>
<path d="M2371 8928 c-1 -23 15 -32 23 -12 3 8 2 13 -3 9 -5 -3 -12 1 -14 7
-4 8 -6 7 -6 -4z"/>
<path d="M2800 8920 c0 -5 9 -9 20 -7 31 5 36 17 7 17 -15 0 -27 -4 -27 -10z"/>
<path d="M1790 8914 c0 -5 7 -18 15 -28 12 -16 15 -17 15 -4 0 8 -7 21 -15 28
-8 7 -15 9 -15 4z"/>
<path d="M2164 8894 c7 -39 17 -43 14 -6 -1 18 -6 32 -10 32 -5 0 -6 -12 -4
-26z"/>
<path d="M2450 8901 c0 -5 4 -12 9 -15 11 -7 19 -59 26 -171 4 -49 8 -95 10
-102 3 -8 -2 -10 -13 -6 -12 4 -10 -1 6 -17 13 -12 25 -20 27 -18 3 2 0 31 -5
64 -5 32 -13 101 -19 152 -6 59 -15 98 -25 108 -9 8 -16 11 -16 5z"/>
<path d="M2620 8906 c0 -2 8 -10 18 -17 15 -13 16 -12 3 4 -13 16 -21 21 -21
13z"/>
<path d="M2207 8870 c3 -11 7 -20 9 -20 2 0 4 9 4 20 0 11 -4 20 -9 20 -5 0
-7 -9 -4 -20z"/>
<path d="M2000 8866 c0 -2 7 -7 16 -10 8 -3 12 -2 9 4 -6 10 -25 14 -25 6z"/>
<path d="M2790 8855 c0 -8 2 -15 4 -15 2 0 6 7 10 15 3 8 1 15 -4 15 -6 0 -10
-7 -10 -15z"/>
<path d="M2822 8850 c0 -14 2 -19 5 -12 2 6 2 18 0 25 -3 6 -5 1 -5 -13z"/>
<path d="M2511 8844 c0 -11 3 -14 6 -6 3 7 2 16 -1 19 -3 4 -6 -2 -5 -13z"/>
<path d="M2535 8840 c3 -5 8 -10 11 -10 2 0 4 5 4 10 0 6 -5 10 -11 10 -5 0
-7 -4 -4 -10z"/>
<path d="M1680 8831 c0 -5 5 -13 10 -16 6 -3 10 -2 10 4 0 5 -4 13 -10 16 -5
3 -10 2 -10 -4z"/>
<path d="M2587 8810 c3 -11 7 -20 8 -20 1 0 5 9 8 20 3 12 0 20 -8 20 -8 0
-11 -8 -8 -20z"/>
<path d="M2715 8819 c-4 -6 -5 -12 -2 -15 2 -3 7 2 10 11 7 17 1 20 -8 4z"/>
<path d="M3106 8815 c-3 -8 -1 -15 4 -15 6 0 10 7 10 15 0 8 -2 15 -4 15 -2 0
-6 -7 -10 -15z"/>
<path d="M2120 8811 c0 -6 4 -13 10 -16 6 -3 7 1 4 9 -7 18 -14 21 -14 7z"/>
<path d="M1080 8796 c0 -2 8 -10 18 -17 15 -13 16 -12 3 4 -13 16 -21 21 -21
13z"/>
<path d="M2514 8775 c4 -16 12 -31 17 -33 5 -2 9 -15 9 -28 0 -13 5 -24 10
-24 13 0 13 4 -4 45 -13 30 -13 35 -1 35 9 0 12 6 8 17 -4 11 -8 13 -11 5 -3
-10 -7 -10 -20 0 -13 11 -14 9 -8 -17z"/>
<path d="M2971 8778 c-1 -21 -5 -26 -18 -21 -11 4 -14 3 -9 -5 4 -7 2 -12 -5
-12 -7 0 -8 -4 -2 -12 5 -7 9 -38 7 -68 -1 -36 1 -48 6 -35 5 11 9 34 9 51 1
27 4 31 25 29 17 -2 23 1 21 13 -1 10 2 25 7 35 12 24 3 34 -16 18 -12 -10
-15 -8 -19 11 -4 21 -4 20 -6 -4z"/>
<path d="M1461 8730 c10 -27 15 -50 11 -50 -14 0 -10 -33 5 -48 11 -11 13 -11
13 2 0 9 -5 16 -10 16 -7 0 -7 7 0 20 8 16 6 30 -9 65 -27 61 -34 57 -10 -5z"/>
<path d="M1580 8766 c0 -2 7 -9 15 -16 13 -11 14 -10 9 4 -5 14 -24 23 -24 12z"/>
<path d="M2094 8745 c-23 -36 -14 -38 14 -4 13 16 19 29 13 29 -6 0 -18 -11
-27 -25z"/>
<path d="M1630 8746 c0 -8 4 -17 9 -20 5 -4 7 3 4 14 -6 23 -13 26 -13 6z"/>
<path d="M3220 8750 c-9 -6 -10 -10 -3 -10 6 0 15 5 18 10 8 12 4 12 -15 0z"/>
<path d="M2761 8713 c-13 -44 -13 -109 -1 -138 5 -12 6 1 3 35 -3 30 0 73 6
94 6 22 9 42 6 44 -2 2 -8 -13 -14 -35z"/>
<path d="M1684 8714 c-1 -13 2 -21 7 -18 11 6 12 31 2 37 -5 3 -9 -6 -9 -19z"/>
<path d="M3150 8701 c0 -6 4 -13 10 -16 6 -3 7 1 4 9 -7 18 -14 21 -14 7z"/>
<path d="M3342 8690 c0 -14 2 -19 5 -12 2 6 2 18 0 25 -3 6 -5 1 -5 -13z"/>
<path d="M2520 8681 c0 -5 5 -13 10 -16 6 -3 10 -2 10 4 0 5 -4 13 -10 16 -5
3 -10 2 -10 -4z"/>
<path d="M3240 8675 c0 -8 5 -15 10 -15 6 0 10 7 10 15 0 8 -4 15 -10 15 -5 0
-10 -7 -10 -15z"/>
<path d="M1510 8673 c0 -4 5 -15 10 -23 8 -13 10 -13 10 2 0 9 -4 20 -10 23
-5 3 -10 3 -10 -2z"/>
<path d="M2640 8655 c0 -14 6 -25 13 -25 9 0 8 -3 -2 -9 -7 -5 -10 -14 -7 -20
4 -6 13 -8 19 -4 7 4 18 8 24 8 7 0 13 3 13 8 0 4 0 13 0 20 0 8 -10 13 -22
13 -16 -1 -23 4 -22 17 1 9 -2 17 -7 17 -5 0 -9 -11 -9 -25z"/>
<path d="M3576 8667 c3 -10 9 -15 12 -12 3 3 0 11 -7 18 -10 9 -11 8 -5 -6z"/>
<path d="M3730 8659 c0 -5 5 -7 10 -4 6 3 10 8 10 11 0 2 -4 4 -10 4 -5 0 -10
-5 -10 -11z"/>
<path d="M1690 8651 c0 -5 5 -13 10 -16 6 -3 10 -2 10 4 0 5 -4 13 -10 16 -5
3 -10 2 -10 -4z"/>
<path d="M2370 8649 c0 -5 5 -7 10 -4 6 3 10 8 10 11 0 2 -4 4 -10 4 -5 0 -10
-5 -10 -11z"/>
<path d="M2570 8651 c0 -6 4 -13 10 -16 6 -3 7 1 4 9 -7 18 -14 21 -14 7z"/>
<path d="M2890 8645 c-6 -8 -9 -18 -6 -23 3 -5 -6 -20 -19 -32 -14 -13 -25
-29 -25 -36 0 -7 -7 -17 -16 -22 -15 -8 -15 -10 0 -15 9 -4 16 -1 16 6 0 7 9
20 19 29 19 16 20 16 24 -5 3 -12 4 -5 4 17 -1 25 4 42 16 51 9 6 14 15 10 18
-3 4 -1 7 6 7 7 0 9 5 6 10 -9 14 -21 12 -35 -5z"/>
<path d="M3145 8651 c-3 -5 -1 -12 5 -16 5 -3 10 1 10 9 0 18 -6 21 -15 7z"/>
<path d="M3290 8630 c-8 -5 -11 -12 -8 -16 4 -3 14 1 23 10 18 17 9 21 -15 6z"/>
<path d="M1874 8581 c-1 -27 2 -38 10 -35 7 3 10 18 8 39 -6 47 -17 44 -18 -4z"/>
<path d="M2420 8591 c0 -6 4 -13 10 -16 6 -3 7 1 4 9 -7 18 -14 21 -14 7z"/>
<path d="M3392 8580 c0 -14 2 -19 5 -12 2 6 2 18 0 25 -3 6 -5 1 -5 -13z"/>
<path d="M2591 8574 c0 -11 3 -14 6 -6 3 7 2 16 -1 19 -3 4 -6 -2 -5 -13z"/>
<path d="M1740 8560 c6 -11 12 -20 14 -20 2 0 2 9 -1 20 -3 11 -9 20 -15 20
-5 0 -4 -9 2 -20z"/>
<path d="M1520 8561 c0 -5 5 -13 10 -16 6 -3 10 -2 10 4 0 5 -4 13 -10 16 -5
3 -10 2 -10 -4z"/>
<path d="M3200 8540 c6 -11 13 -20 16 -20 2 0 0 9 -6 20 -6 11 -13 20 -16 20
-2 0 0 -9 6 -20z"/>
<path d="M3405 8508 c3 -23 7 -44 10 -46 8 -8 36 8 31 17 -3 5 2 15 11 22 13
11 17 11 20 2 6 -18 23 -16 23 2 0 8 -7 15 -15 15 -8 0 -15 5 -15 10 0 6 -5
10 -11 10 -5 0 -7 -4 -4 -10 3 -5 1 -10 -5 -10 -6 0 -13 7 -16 15 -4 8 -12 15
-20 15 -11 0 -13 -10 -9 -42z"/>
<path d="M2471 8523 c-1 -12 4 -25 9 -28 12 -7 12 2 0 30 -8 19 -9 19 -9 -2z"/>
<path d="M1510 8519 c0 -5 5 -7 10 -4 6 3 10 8 10 11 0 2 -4 4 -10 4 -5 0 -10
-5 -10 -11z"/>
<path d="M2160 8520 c-9 -6 -10 -10 -3 -10 6 0 15 5 18 10 8 12 4 12 -15 0z"/>
<path d="M2660 8510 c0 -5 5 -10 11 -10 5 0 7 5 4 10 -3 6 -8 10 -11 10 -2 0
-4 -4 -4 -10z"/>
<path d="M3723 8504 c-7 -18 6 -33 34 -38 24 -5 25 12 4 38 -17 20 -30 20 -38
0z m31 -9 c3 -9 0 -15 -8 -15 -7 0 -13 7 -13 15 0 8 4 15 8 15 4 0 9 -7 13
-15z"/>
<path d="M1990 8493 c0 -4 5 -15 10 -23 8 -13 10 -13 10 2 0 9 -4 20 -10 23
-5 3 -10 3 -10 -2z"/>
<path d="M2037 8484 c-12 -12 -8 -34 7 -34 16 0 28 -37 15 -46 -14 -8 11 -36
27 -30 8 3 13 2 11 -2 -1 -4 2 -7 8 -7 5 0 8 14 6 32 -2 28 0 32 18 28 26 -5
27 11 3 24 -14 7 -25 6 -40 -5 -18 -12 -22 -13 -22 -1 0 19 -24 49 -33 41z"/>
<path d="M2775 8470 c-3 -5 -2 -10 4 -10 5 0 13 5 16 10 3 6 2 10 -4 10 -5 0
-13 -4 -16 -10z"/>
<path d="M2896 8452 c6 -4 14 -14 17 -22 4 -10 6 -8 6 8 1 15 -5 22 -16 22
-11 0 -14 -3 -7 -8z"/>
<path d="M3750 8440 c29 -22 43 -25 38 -8 -3 7 -18 15 -34 20 l-29 7 25 -19z"/>
<path d="M3386 8427 c3 -10 9 -15 12 -12 3 3 0 11 -7 18 -10 9 -11 8 -5 -6z"/>
<path d="M1976 8422 c-2 -4 2 -18 11 -32 8 -14 12 -17 9 -6 -5 13 -2 17 9 12
8 -3 15 -1 15 4 0 13 -38 32 -44 22z"/>
<path d="M3070 8407 c0 -8 9 -22 20 -32 17 -15 23 -16 33 -5 10 10 9 11 -2 5
-11 -6 -13 -4 -8 9 4 9 3 15 -2 11 -5 -3 -17 2 -25 11 -13 12 -16 13 -16 1z"/>
<path d="M2670 8372 c0 -7 -4 -11 -9 -7 -9 5 3 -52 13 -62 3 -3 1 -16 -4 -29
-6 -14 -6 -26 0 -29 6 -4 10 -15 10 -27 0 -17 2 -18 15 -8 13 11 13 15 3 21
-10 7 -10 9 0 9 19 0 27 -4 25 -12 -2 -5 2 -8 7 -8 6 0 10 15 10 33 0 18 6 42
14 53 13 18 12 22 -6 33 -11 7 -17 8 -13 2 3 -6 2 -11 -3 -11 -5 0 -14 10 -20
23 -6 12 -11 16 -11 8 -1 -11 -5 -10 -16 5 -9 12 -14 14 -15 6z"/>
<path d="M2922 8355 c0 -16 2 -22 5 -12 2 9 2 23 0 30 -3 6 -5 -1 -5 -18z"/>
<path d="M3231 8371 c-11 -7 -10 -10 4 -18 13 -8 14 -12 6 -18 -9 -5 -6 -12 9
-22 18 -13 24 -13 31 -2 6 11 9 10 15 -4 7 -20 24 -13 24 11 0 15 -2 15 -10 2
-7 -10 -10 -11 -10 -2 0 7 6 15 13 18 8 3 14 11 14 19 0 10 -5 11 -15 6 -10
-6 -21 -4 -30 5 -15 16 -31 17 -51 5z"/>
<path d="M2018 8357 c9 -10 10 -17 2 -22 -5 -3 -10 -3 -10 1 0 3 -7 1 -15 -6
-13 -11 -13 -15 0 -41 18 -33 19 -43 5 -34 -18 11 -32 -5 -19 -21 9 -11 14
-12 19 -3 5 7 14 3 29 -13 l22 -23 -10 28 c-17 44 -14 77 7 77 10 0 24 -6 31
-12 11 -11 13 -10 7 5 -3 10 -6 21 -6 23 0 3 -5 2 -11 -1 -6 -4 -13 2 -15 12
-3 10 -15 25 -27 33 -20 12 -21 12 -9 -3z"/>
<path d="M2810 8365 c0 -5 5 -17 10 -25 5 -8 10 -10 10 -5 0 6 -5 17 -10 25
-5 8 -10 11 -10 5z"/>
<path d="M1961 8344 c0 -11 3 -14 6 -6 3 7 2 16 -1 19 -3 4 -6 -2 -5 -13z"/>
<path d="M2381 8324 c0 -11 3 -14 6 -6 3 7 2 16 -1 19 -3 4 -6 -2 -5 -13z"/>
<path d="M3007 8325 c-4 -8 -2 -17 3 -20 6 -4 10 3 10 14 0 25 -6 27 -13 6z"/>
<path d="M1710 8309 c0 -4 -3 -16 -6 -26 -5 -15 -4 -16 5 -3 9 12 13 12 19 2
5 -7 19 -14 30 -15 20 -1 27 -15 23 -40 -1 -5 3 -6 9 -2 6 3 8 11 5 16 -4 5 1
9 9 9 21 0 31 -21 15 -31 -11 -6 -11 -11 -1 -21 19 -19 14 -45 -9 -51 -13 -4
-22 0 -26 11 -9 23 -41 53 -48 43 -2 -5 1 -11 9 -14 9 -4 12 -23 10 -71 -1
-36 2 -66 7 -66 5 0 15 -11 21 -25 14 -30 28 -33 28 -5 0 23 22 26 40 5 13
-15 24 -7 65 50 14 19 14 19 15 -7 0 -15 4 -30 10 -33 6 -4 7 1 3 11 -5 14 -2
16 15 12 12 -4 22 -1 22 4 0 6 6 5 15 -2 8 -7 12 -16 9 -21 -3 -5 -1 -9 4 -9
16 0 22 13 12 26 -6 6 -10 16 -9 20 5 29 -2 34 -27 17 -23 -15 -28 -15 -38 -2
-16 22 -47 31 -62 18 -11 -9 -12 -15 -2 -26 9 -11 8 -18 -5 -31 -26 -25 -39
-3 -35 63 l3 57 28 -22 c31 -25 36 -16 8 14 -23 25 -32 62 -13 59 17 -4 15 7
-5 29 -9 11 -11 18 -5 18 7 0 12 7 12 16 0 10 -6 14 -14 11 -8 -3 -16 -1 -19
6 -4 12 -127 18 -127 6z m107 -255 c-3 -3 -12 -4 -19 -1 -8 3 -5 6 6 6 11 1
17 -2 13 -5z"/>
<path d="M2426 8304 c-8 -20 -8 -24 2 -24 4 0 8 9 9 20 2 24 -3 26 -11 4z"/>
<path d="M2111 8296 c-7 -8 -8 -17 -3 -20 6 -3 13 1 16 10 9 23 2 28 -13 10z"/>
<path d="M1665 8291 c-3 -5 -1 -12 5 -16 5 -3 10 1 10 9 0 18 -6 21 -15 7z"/>
<path d="M2350 8290 c-13 -9 -13 -11 -1 -19 12 -7 12 -13 3 -24 -17 -20 -5
-27 28 -17 16 5 30 4 32 -1 2 -4 9 -5 15 -1 10 6 9 13 -3 30 -18 27 -31 28
-37 5 -4 -17 -5 -17 -6 0 0 9 -7 17 -13 17 -9 0 -8 4 2 10 8 5 11 10 5 10 -5
0 -17 -5 -25 -10z"/>
<path d="M2802 8240 c0 -14 2 -19 5 -12 2 6 2 18 0 25 -3 6 -5 1 -5 -13z"/>
<path d="M35 8208 c4 -11 0 -18 -14 -23 -25 -8 -25 -44 1 -37 9 2 17 7 16 11
-1 3 2 14 7 24 5 11 3 23 -4 30 -9 9 -11 8 -6 -5z"/>
<path d="M2135 8198 c4 -13 11 -27 16 -33 5 -5 4 5 -2 23 -12 36 -24 44 -14
10z"/>
<path d="M2215 8210 c-3 -5 1 -10 11 -10 11 0 15 -6 11 -20 -3 -11 -2 -18 3
-15 4 3 11 -3 15 -13 6 -16 7 -16 16 1 8 14 5 23 -13 42 -25 27 -34 30 -43 15z"/>
<path d="M2937 8193 c-3 -16 -1 -32 4 -37 6 -6 9 -5 9 2 0 7 6 12 13 11 26 -3
36 2 31 16 -4 8 -11 12 -17 8 -5 -3 -16 1 -22 11 -11 15 -13 13 -18 -11z"/>
<path d="M2010 8163 c0 -5 5 -15 10 -23 8 -12 10 -11 10 8 0 12 -4 22 -10 22
-5 0 -10 -3 -10 -7z"/>
<path d="M498 8153 c6 -3 10 -8 7 -13 -3 -4 3 -14 12 -21 13 -11 15 -11 9 -1
-4 7 -3 18 2 25 8 9 3 12 -16 13 -15 1 -21 -1 -14 -3z"/>
<path d="M2040 8142 c0 -5 7 -15 15 -22 8 -7 15 -8 15 -2 0 5 -7 15 -15 22 -8
7 -15 8 -15 2z"/>
<path d="M3780 8142 c0 -1 11 -15 24 -29 21 -22 24 -23 21 -7 -2 10 -4 24 -4
29 -1 9 -41 16 -41 7z"/>
<path d="M2765 8130 c-3 -5 -1 -10 4 -10 6 0 11 5 11 10 0 6 -2 10 -4 10 -3 0
-8 -4 -11 -10z"/>
<path d="M3340 8136 c0 -2 7 -7 16 -10 8 -3 12 -2 9 4 -6 10 -25 14 -25 6z"/>
<path d="M1610 8112 c0 -4 9 -13 20 -20 11 -7 20 -9 20 -4 0 4 -9 13 -20 20
-11 7 -20 9 -20 4z"/>
<path d="M3440 8103 c0 -12 -4 -25 -10 -28 -17 -11 -12 -43 7 -41 9 2 19 8 21
14 2 7 12 12 21 12 10 0 18 7 18 15 0 8 -8 15 -18 15 -10 0 -23 8 -28 18 -9
15 -10 15 -11 -5z"/>
<path d="M2941 8094 c0 -11 3 -14 6 -6 3 7 2 16 -1 19 -3 4 -6 -2 -5 -13z"/>
<path d="M2265 8060 c-22 -22 -49 -40 -60 -40 -19 0 -21 -6 -20 -59 0 -33 5
-64 9 -68 5 -4 6 -2 2 5 -9 15 6 16 21 1 16 -16 28 58 12 77 -6 8 -8 18 -4 22
4 4 10 1 12 -5 3 -7 11 -13 19 -13 9 0 12 5 9 13 -4 6 2 2 13 -10 26 -30 29
-29 29 6 0 16 7 37 16 46 10 9 17 21 17 27 0 6 -3 8 -7 4 -4 -3 -12 3 -18 14
-11 20 -13 19 -50 -20z"/>
<path d="M2673 8075 c0 -8 6 -16 13 -19 7 -3 10 2 7 15 -6 22 -20 26 -20 4z"/>
<path d="M2980 8075 c0 -8 5 -15 10 -15 6 0 10 7 10 15 0 8 -4 15 -10 15 -5 0
-10 -7 -10 -15z"/>
<path d="M2615 8051 c-4 -10 -9 -11 -16 -4 -16 16 -45 4 -58 -24 -10 -21 -9
-28 1 -34 7 -5 14 -4 16 1 5 15 42 -8 42 -27 0 -10 6 -14 20 -10 10 3 21 0 23
-7 9 -24 16 2 8 30 -5 16 -10 25 -10 19 -1 -5 -5 -4 -10 4 -8 12 -12 12 -25 2
-14 -12 -16 -10 -16 15 0 22 3 26 10 14 5 -8 10 -10 10 -5 0 6 12 18 28 27 25
16 25 17 5 15 -12 -1 -25 -8 -28 -16z"/>
<path d="M3808 8063 c6 -2 12 -12 12 -21 0 -14 2 -15 9 -2 12 18 5 30 -17 29
-11 0 -12 -3 -4 -6z"/>
<path d="M3571 8044 c0 -11 3 -14 6 -6 3 7 2 16 -1 19 -3 4 -6 -2 -5 -13z"/>
<path d="M1670 8030 c6 -11 15 -20 20 -20 14 0 1 28 -16 34 -12 4 -12 2 -4
-14z"/>
<path d="M362 8020 c-10 -17 -10 -20 2 -20 19 0 31 19 19 31 -5 5 -14 0 -21
-11z"/>
<path d="M553 8021 c0 -11 6 -19 11 -18 5 1 12 -6 14 -15 3 -15 -3 -17 -36
-14 -22 2 -45 7 -53 11 -8 5 -11 5 -7 0 4 -4 2 -15 -5 -23 -6 -9 -7 -13 -2
-10 6 4 16 -1 22 -11 11 -17 9 -17 -13 -7 -18 8 -23 17 -19 32 3 15 -1 24 -13
29 -25 11 -52 13 -52 4 0 -4 -9 -11 -21 -14 -15 -5 -25 -1 -36 15 -12 16 -18
18 -29 9 -7 -6 -12 -15 -9 -19 2 -4 -4 -16 -13 -26 -10 -10 -16 -27 -14 -38 3
-15 10 -18 44 -13 l40 5 -6 -34 c-6 -27 -4 -33 8 -28 11 4 13 0 9 -15 -3 -11
-11 -22 -19 -25 -12 -4 -12 -10 -4 -26 9 -17 7 -20 -14 -26 -32 -8 -90 2 -95
17 -2 6 -12 18 -22 27 -10 9 -16 18 -14 21 2 4 -20 6 -48 5 -29 0 -59 5 -67
13 -14 11 -19 8 -34 -17 -9 -17 -26 -30 -37 -30 -14 0 -19 -7 -19 -24 0 -14 5
-28 10 -31 19 -12 60 -15 60 -5 0 16 21 11 38 -10 11 -12 57 -30 132 -49 63
-17 129 -35 147 -40 17 -5 34 -7 37 -3 3 3 6 0 6 -6 0 -8 7 -9 25 -2 24 9 65
-4 65 -21 0 -3 11 -4 25 -1 14 2 31 -1 39 -7 14 -12 46 -5 46 10 0 5 5 9 11 9
5 0 7 -4 4 -10 -3 -5 2 -10 12 -10 14 0 15 -2 4 -9 -11 -7 -10 -11 5 -19 15
-8 22 -5 41 21 13 17 23 37 23 44 0 7 6 13 13 13 8 0 7 3 -3 10 -8 5 -11 12
-8 15 16 16 28 -8 22 -42 l-7 -36 39 7 c22 4 42 11 46 14 11 11 -27 50 -53 54
-15 2 -25 11 -27 24 -4 27 16 43 56 46 35 3 36 5 22 43 -7 17 -7 24 0 20 6 -3
10 -1 10 4 0 6 7 11 15 11 14 0 13 3 -1 25 -9 14 -20 22 -25 19 -8 -5 -13 9
-10 29 0 4 -4 7 -10 7 -6 0 -9 12 -7 27 3 26 -1 29 -42 37 -25 5 -47 13 -50
16 -8 11 -73 44 -93 47 -12 2 -16 -1 -11 -9 4 -7 -2 -5 -13 5 -26 22 -42 22
-40 -2z m-43 -61 c0 -5 -2 -10 -4 -10 -3 0 -8 5 -11 10 -3 6 -1 10 4 10 6 0
11 -4 11 -10z m65 -10 c3 -6 -1 -7 -9 -4 -18 7 -21 14 -7 14 6 0 13 -4 16 -10z
m112 -15 c0 -8 -4 -12 -9 -9 -5 3 -6 10 -3 15 9 13 12 11 12 -6z m-227 -151
c0 -13 -31 0 -40 17 -11 20 -11 20 14 4 14 -10 26 -19 26 -21z m-10 -39 c0 -8
-4 -15 -10 -15 -5 0 -10 7 -10 15 0 8 5 15 10 15 6 0 10 -7 10 -15z"/>
<path d="M3350 8030 c0 -5 5 -10 11 -10 5 0 7 5 4 10 -3 6 -8 10 -11 10 -2 0
-4 -4 -4 -10z"/>
<path d="M3071 8004 c-1 -12 6 -25 15 -28 13 -5 14 -3 7 6 -6 7 -13 20 -16 28
-4 10 -6 8 -6 -6z"/>
<path d="M3450 8010 c0 -5 5 -10 11 -10 5 0 7 5 4 10 -3 6 -8 10 -11 10 -2 0
-4 -4 -4 -10z"/>
<path d="M2704 7975 c7 -37 16 -44 16 -12 0 14 -5 29 -10 32 -7 4 -9 -3 -6
-20z"/>
<path d="M3493 7992 c-37 -4 -40 -9 -18 -38 14 -19 14 -18 15 4 0 24 15 30 23
10 6 -17 20 -4 15 14 -2 8 -15 12 -35 10z"/>
<path d="M2476 7965 c-10 -28 -7 -55 8 -55 19 0 38 26 34 47 -4 23 -34 29 -42
8z"/>
<path d="M1750 7951 c12 -23 5 -47 -16 -55 -9 -4 -19 4 -26 19 -6 14 -15 25
-20 25 -11 0 -10 -17 1 -25 6 -3 10 -13 10 -23 0 -23 5 -44 15 -60 4 -8 5 -38
1 -68 -6 -49 -5 -54 13 -54 16 0 22 9 27 40 4 21 4 48 0 60 -3 11 -2 20 3 20
5 0 10 6 9 13 -2 64 4 108 16 102 6 -4 3 1 -7 9 -27 22 -39 20 -26 -3z"/>
<path d="M2084 7959 c-8 -13 24 -41 41 -36 5 2 10 12 10 23 0 22 -39 32 -51
13z"/>
<path d="M1844 7953 c4 -8 1 -13 -8 -13 -9 0 -16 -5 -16 -11 0 -5 5 -7 12 -3
6 4 18 -2 26 -12 13 -18 14 -18 7 6 -4 14 -12 30 -18 35 -7 7 -8 6 -3 -2z"/>
<path d="M2347 7948 c7 -8 11 -17 9 -19 -2 -2 6 -5 19 -5 16 -1 22 2 18 12 -3
8 -9 14 -13 14 -5 0 -17 3 -27 7 -15 6 -16 4 -6 -9z"/>
<path d="M3011 7943 c0 -11 -15 -33 -32 -47 -27 -23 -28 -26 -10 -26 12 0 20
-3 20 -7 -4 -23 3 -40 21 -51 20 -12 21 -12 4 13 -10 15 -12 25 -5 25 6 0 11
-4 11 -10 0 -15 19 -12 37 5 8 8 19 13 24 9 5 -3 14 8 20 25 6 17 17 31 25 31
8 0 14 5 14 11 0 7 -10 5 -25 -5 -14 -9 -24 -13 -23 -9 6 18 -16 16 -26 -2
-12 -21 -33 -38 -52 -41 -9 -1 -9 8 -2 33 5 19 7 42 5 51 -4 13 -5 11 -6 -5z"/>
<path d="M3331 7948 c0 -9 -4 -25 -7 -35 -5 -17 -5 -17 6 0 6 10 9 25 7 35 -4
15 -5 15 -6 0z"/>
<path d="M3536 7942 c-4 -12 -11 -20 -16 -17 -5 3 -11 1 -14 -4 -4 -5 -1 -13
5 -16 16 -10 42 19 37 41 -4 17 -5 16 -12 -4z"/>
<path d="M2730 7937 c0 -8 -10 -17 -21 -20 -19 -5 -21 -10 -14 -44 8 -42 21
-63 40 -63 8 0 15 -6 18 -12 2 -7 2 -3 0 10 -2 15 2 22 12 22 19 0 19 14 0 30
-8 7 -15 27 -15 46 0 18 -4 36 -10 39 -5 3 -10 0 -10 -8z"/>
<path d="M2831 7934 c0 -11 3 -14 6 -6 3 7 2 16 -1 19 -3 4 -6 -2 -5 -13z"/>
<path d="M170 7920 c0 -5 5 -10 11 -10 5 0 7 5 4 10 -3 6 -8 10 -11 10 -2 0
-4 -4 -4 -10z"/>
<path d="M2022 7912 c-10 -7 -8 -12 6 -26 19 -16 19 -16 15 9 -3 14 -6 25 -7
25 0 0 -7 -4 -14 -8z"/>
<path d="M3575 7910 c-4 -6 -14 -9 -22 -8 -9 2 -18 -2 -20 -8 -2 -6 10 -10 27
-10 22 0 30 4 30 18 0 20 -6 23 -15 8z"/>
<path d="M16 7891 c-18 -20 -14 -65 7 -78 6 -3 7 -1 3 5 -4 7 -1 12 8 12 17 0
22 25 7 35 -6 3 -8 14 -6 25 5 25 2 25 -19 1z"/>
<path d="M2106 7902 c-3 -6 -2 -13 4 -17 5 -3 10 -16 10 -28 0 -15 3 -18 8 -9
5 7 16 10 25 6 10 -3 17 -1 17 5 0 6 -5 11 -11 11 -6 0 -19 10 -28 22 -12 14
-20 17 -25 10z"/>
<path d="M2308 7890 c-11 -12 -13 -22 -7 -26 6 -3 11 -4 12 -3 1 2 8 14 15 27
15 27 4 28 -20 2z"/>
<path d="M3600 7895 c0 -8 2 -15 4 -15 2 0 6 7 10 15 3 8 1 15 -4 15 -6 0 -10
-7 -10 -15z"/>
<path d="M1910 7891 c0 -6 4 -13 10 -16 6 -3 7 1 4 9 -7 18 -14 21 -14 7z"/>
<path d="M3385 7890 c3 -5 15 -10 25 -10 10 0 21 -6 23 -12 3 -7 6 -3 6 10 1
18 -4 22 -30 22 -17 0 -28 -4 -24 -10z"/>
<path d="M1881 7874 c0 -11 3 -14 6 -6 3 7 2 16 -1 19 -3 4 -6 -2 -5 -13z"/>
<path d="M3173 7877 c-17 -7 -35 -15 -39 -20 -10 -10 58 13 71 24 11 11 8 11
-32 -4z"/>
<path d="M260 7870 c0 -5 4 -10 9 -10 6 0 13 5 16 10 3 6 -1 10 -9 10 -9 0
-16 -4 -16 -10z"/>
<path d="M3460 7859 c0 -5 5 -7 10 -4 6 3 10 8 10 11 0 2 -4 4 -10 4 -5 0 -10
-5 -10 -11z"/>
<path d="M3600 7840 c0 -18 4 -29 10 -25 6 3 10 15 10 25 0 10 -4 22 -10 25
-6 4 -10 -7 -10 -25z"/>
<path d="M1900 7852 c0 -7 -4 -11 -10 -7 -13 8 -60 -5 -60 -17 0 -5 4 -7 9 -3
5 3 17 -5 25 -17 13 -18 18 -20 28 -10 10 10 10 15 -2 22 -12 8 -10 10 8 10
13 0 21 -4 18 -8 -2 -4 12 -8 33 -7 34 0 37 2 27 18 -12 19 -26 23 -26 7 0
-16 -22 -12 -36 8 -9 11 -13 13 -14 4z"/>
<path d="M2227 7853 c-13 -12 -7 -22 13 -20 11 1 20 7 20 14 0 14 -22 18 -33
6z"/>
<path d="M2460 7846 c0 -8 9 -18 20 -21 11 -3 20 -14 21 -23 0 -12 2 -13 6 -4
7 18 -17 62 -34 62 -7 0 -13 -6 -13 -14z"/>
<path d="M2009 7848 c-7 -24 -4 -34 12 -35 16 -2 17 2 9 18 -9 17 -18 24 -21
17z"/>
<path d="M2959 7833 c11 -21 7 -24 -39 -48 -27 -14 -50 -30 -50 -35 0 -6 -6
-10 -12 -10 -7 0 -19 -4 -27 -9 -12 -8 -12 -12 -2 -25 7 -9 10 -24 6 -37 -5
-15 -4 -19 4 -15 14 9 10 -16 -4 -26 -6 -5 -5 -8 3 -8 10 0 10 -5 2 -20 -6
-11 -9 -24 -6 -29 6 -10 -30 -22 -38 -13 -10 9 -7 51 4 57 6 4 10 14 9 23 -1
10 1 25 5 34 5 11 2 23 -7 33 -19 18 -52 21 -41 3 5 -7 9 -21 9 -31 2 -17 -4
-18 -36 -14 -27 4 -43 0 -57 -13 -10 -10 -28 -20 -39 -24 -17 -5 -22 -1 -26
21 -3 15 -1 30 4 31 5 2 9 8 9 13 0 5 -9 4 -19 -3 -11 -7 -18 -15 -16 -18 2
-3 -5 -32 -16 -64 -17 -54 -18 -60 -2 -71 9 -7 13 -17 10 -22 -4 -6 0 -13 8
-17 8 -3 15 -13 15 -23 0 -15 -2 -15 -16 3 -14 17 -15 17 -10 1 3 -10 6 -24 6
-29 0 -6 3 -8 7 -5 9 10 33 -49 33 -82 0 -15 -7 -37 -16 -50 -13 -18 -14 -28
-5 -48 6 -13 9 -28 6 -33 -3 -4 2 -13 10 -20 9 -8 12 -22 8 -41 -3 -18 -1 -29
6 -29 6 0 11 -7 11 -15 0 -8 4 -15 9 -15 5 0 15 -26 22 -57 7 -32 18 -65 26
-74 7 -8 13 -26 13 -38 0 -12 4 -20 8 -17 16 10 82 -45 97 -79 17 -43 35 -45
35 -4 0 17 7 37 15 45 39 39 22 105 -21 81 -18 -10 -18 -10 0 18 11 16 20 40
22 53 2 18 -1 22 -17 17 -16 -5 -19 -1 -19 22 0 35 34 61 56 42 12 -10 12 -14
2 -20 -9 -6 -6 -9 10 -9 14 0 27 -9 34 -25 6 -14 15 -25 20 -25 4 0 7 -6 5
-12 -1 -7 8 -14 21 -16 23 -3 23 -3 7 21 -11 17 -13 27 -6 32 6 3 11 -1 11 -9
0 -9 5 -16 10 -16 6 0 10 7 10 15 0 9 7 18 16 22 8 3 13 11 10 18 -2 7 1 21 9
31 11 16 16 17 38 5 23 -12 24 -15 10 -42 -8 -16 -23 -34 -34 -39 -10 -6 -25
-32 -32 -58 -11 -34 -19 -46 -31 -44 -18 3 -22 -13 -5 -24 6 -3 8 -15 5 -26
-3 -12 6 -42 21 -70 15 -29 26 -65 25 -87 0 -35 0 -35 18 17 11 29 29 97 40
150 12 53 30 110 40 128 24 38 25 45 5 38 -8 -4 -15 -1 -15 6 0 6 10 10 23 9
25 -4 47 7 47 22 0 6 -4 7 -10 4 -6 -3 -7 1 -3 10 5 13 8 14 15 3 7 -10 11 -9
20 7 6 11 23 29 36 40 14 11 37 33 51 49 14 16 41 42 58 59 18 16 30 34 27 38
-3 5 3 9 13 9 13 0 14 3 6 8 -10 7 -10 14 0 35 6 15 15 27 20 27 4 0 7 5 7 11
0 5 -4 7 -10 4 -6 -3 -7 1 -4 9 4 10 1 16 -9 16 -8 0 -17 7 -21 15 -6 18 -2
19 26 4 15 -8 19 -8 14 0 -4 7 1 11 13 11 12 0 21 -4 21 -10 0 -27 60 7 69 40
3 8 5 47 5 85 1 39 6 73 11 77 6 5 5 8 -2 8 -7 0 -13 6 -13 13 0 15 -56 53
-72 49 -6 -2 -15 3 -19 10 -7 10 -9 10 -9 1 0 -21 -18 -15 -26 10 -11 30 -11
33 -13 62 -1 20 -6 24 -23 21 -13 -1 -21 -7 -20 -11 2 -4 -2 -11 -8 -15 -9 -5
-6 -13 8 -26 24 -23 27 -83 5 -91 -8 -3 -18 -1 -22 4 -4 7 -11 6 -19 -3 -11
-12 -10 -15 2 -20 22 -8 20 -45 -2 -51 -17 -4 -18 -10 -9 -55 9 -46 8 -53 -10
-67 -11 -9 -19 -26 -18 -37 1 -13 -5 -21 -17 -21 -10 -1 -18 2 -18 8 0 5 -15
9 -33 9 -27 0 -36 6 -51 33 -9 17 -14 23 -11 12 6 -18 4 -18 -18 3 -18 17 -26
20 -30 10 -2 -7 -3 8 -1 35 3 34 1 46 -8 45 -9 -2 -13 11 -14 40 -1 23 -5 46
-9 50 -5 4 -5 -1 -2 -11 5 -13 3 -17 -5 -15 -7 3 -14 14 -14 26 -1 18 3 21 23
17 19 -3 23 0 19 11 -3 9 -6 18 -6 20 0 2 -7 4 -16 4 -9 0 -12 -5 -8 -12 5 -8
0 -9 -14 -6 -12 4 -22 2 -22 -3 0 -6 -8 -5 -19 1 -24 12 -36 47 -23 63 7 8 0
21 -20 42 -24 24 -28 25 -19 8z m20 -102 c1 -16 5 -21 15 -18 10 4 18 -5 25
-25 14 -40 14 -41 -5 -34 -8 3 -12 2 -9 -4 3 -6 -1 -10 -9 -10 -10 0 -16 9
-16 23 0 31 -14 49 -32 42 -27 -10 -31 36 -5 63 20 21 22 22 28 5 4 -10 8 -29
8 -42z m-9 -70 c0 -6 -4 -13 -10 -16 -5 -3 -10 1 -10 9 0 9 5 16 10 16 6 0 10
-4 10 -9z m426 -38 c-10 -10 -19 5 -10 18 6 11 8 11 12 0 2 -7 1 -15 -2 -18z
m-636 -64 c0 -4 -9 -13 -20 -19 -17 -9 -20 -8 -20 14 0 19 4 23 20 19 11 -3
20 -9 20 -14z m258 -18 c3 -36 -11 -40 -32 -9 -18 25 -21 42 -7 33 5 -3 12 -1
16 5 10 17 20 4 23 -29z m374 -3 c21 -21 21 -22 2 -29 -30 -12 -34 -10 -34 12
0 11 -4 17 -10 14 -5 -3 -10 1 -10 9 0 23 26 20 52 -6z m48 -8 c0 -5 -2 -10
-4 -10 -3 0 -8 5 -11 10 -3 6 -1 10 4 10 6 0 11 -4 11 -10z m-704 -21 c10 -16
-17 -29 -31 -16 -10 9 -10 14 -1 19 16 11 24 10 32 -3z m75 -14 c5 3 6 -1 3
-9 -3 -9 -12 -16 -19 -16 -8 0 -11 -8 -8 -20 3 -11 0 -20 -6 -20 -10 0 -15 13
-12 35 1 6 -5 2 -12 -7 -22 -28 -29 -21 -13 11 9 16 12 32 8 36 -4 5 1 5 11 2
10 -4 17 -1 17 6 0 7 5 4 11 -6 6 -9 14 -15 20 -12z m25 -22 c-11 -11 -17 4
-9 23 7 18 8 18 11 1 2 -10 1 -21 -2 -24z m214 -9 c0 -12 -4 -12 -20 -4 -11 6
-18 15 -15 20 8 13 35 0 35 -16z m-110 -14 c0 -11 -7 -20 -15 -20 -8 0 -15 5
-15 11 0 5 5 7 10 4 6 -3 10 1 10 9 0 9 2 16 5 16 3 0 5 -9 5 -20z m-238 -15
c12 -3 26 -9 31 -14 12 -12 -1 -141 -13 -141 -5 0 -8 6 -6 13 13 41 16 68 6
62 -6 -3 -10 3 -10 15 0 11 -8 24 -17 27 -10 4 -23 12 -29 18 -12 12 -7 38 7
29 5 -3 19 -7 31 -9z m348 -26 c0 -11 -5 -17 -10 -14 -6 4 -8 10 -5 15 3 4 -1
11 -7 13 -8 3 -6 6 5 6 11 1 17 -6 17 -20z m-77 -47 c-8 -2 -19 2 -24 10 -7
10 -9 10 -9 -2 0 -11 -3 -10 -11 4 -18 30 10 39 38 13 18 -18 20 -23 6 -25z
m334 8 c1 -11 -4 -20 -13 -20 -8 0 -14 2 -14 4 0 2 -3 11 -6 20 -4 11 0 16 13
16 12 0 19 -8 20 -20z m-294 -39 c4 -2 11 -4 16 -5 14 -2 51 -52 51 -71 0 -19
-30 -17 -47 5 -11 13 -12 12 -13 -8 0 -13 -4 -20 -10 -17 -5 3 -10 1 -10 -4 0
-6 5 -11 11 -11 17 0 6 -83 -13 -98 -10 -7 -18 -21 -18 -31 0 -10 -7 -18 -15
-18 -8 0 -12 3 -10 7 2 3 -5 13 -16 20 -22 16 -25 36 -6 43 6 2 -3 11 -21 21
-18 9 -30 21 -27 25 3 5 -9 8 -26 7 -17 -1 -38 4 -47 11 -16 12 -16 13 1 7 11
-4 17 -1 17 10 0 9 8 16 20 16 11 0 20 -4 20 -10 0 -5 7 -7 15 -4 8 4 15 12
15 19 0 8 14 20 30 29 25 12 30 12 30 1 0 -8 9 -13 20 -12 20 1 24 19 5 18 -6
0 -16 11 -23 25 -17 31 -28 30 -37 -3 -6 -26 -7 -27 -18 -8 -6 11 -17 25 -24
30 -9 7 7 10 54 9 38 0 71 -2 76 -3z m-313 -51 c0 -5 -2 -10 -4 -10 -3 0 -8 5
-11 10 -3 6 -1 10 4 10 6 0 11 -4 11 -10z m90 -49 c0 -5 -7 -11 -15 -15 -15
-5 -20 5 -8 17 9 10 23 9 23 -2z m326 -15 c10 -8 16 -18 11 -22 -12 -12 -71
-12 -79 0 -10 15 -10 28 0 22 4 -2 14 -1 22 5 20 12 23 11 46 -5z m-336 -137
c0 -21 -1 -22 -24 -13 -9 3 -16 13 -16 21 0 13 3 13 15 3 13 -11 14 -10 9 5
-5 13 -4 16 4 11 7 -4 12 -16 12 -27z m4 -44 c-7 -16 -24 -21 -24 -6 0 8 7 13
27 20 1 1 0 -6 -3 -14z m-10 -41 c9 -24 7 -54 -3 -54 -12 0 -16 8 -25 43 -5
20 -3 27 8 27 8 0 17 -7 20 -16z m81 -79 c0 -14 -3 -25 -7 -25 -5 0 -15 0 -23
0 -8 0 -15 4 -15 10 0 5 8 6 17 3 12 -5 15 -2 10 9 -3 9 -3 19 0 22 12 12 19
5 18 -19z m235 -59 c0 -3 -4 -8 -10 -11 -5 -3 -10 -1 -10 4 0 6 5 11 10 11 6
0 10 -2 10 -4z"/>
<path d="M2995 7690 c3 -5 8 -10 11 -10 2 0 4 5 4 10 0 6 -5 10 -11 10 -5 0
-7 -4 -4 -10z"/>
<path d="M2940 7220 c0 -5 5 -10 10 -10 6 0 10 5 10 10 0 6 -4 10 -10 10 -5 0
-10 -4 -10 -10z"/>
<path d="M3090 7839 c0 -5 -7 -5 -17 -2 -11 4 -14 3 -9 -6 4 -6 15 -10 24 -9
9 2 16 -3 15 -9 -2 -7 2 -13 7 -13 6 0 10 11 10 23 0 14 -6 24 -15 24 -8 0
-15 -4 -15 -8z"/>
<path d="M2101 7820 c-1 -20 -3 -22 -11 -10 -5 8 -12 11 -17 7 -4 -5 -1 -12 7
-17 19 -12 33 2 27 26 -3 14 -5 13 -6 -6z"/>
<path d="M3487 7833 c-11 -10 -8 -25 3 -18 6 3 10 2 10 -3 0 -5 6 -9 14 -9 8
0 11 8 8 19 -4 18 -23 24 -35 11z"/>
<path d="M2363 7795 c-12 -13 -7 -25 9 -25 5 0 7 4 4 9 -4 5 -1 11 6 13 7 3 8
7 3 10 -6 3 -15 0 -22 -7z"/>
<path d="M2552 7790 c-16 -26 -15 -37 3 -37 10 0 15 10 15 29 0 33 -1 34 -18
8z"/>
<path d="M1975 7790 c-3 -5 -17 -10 -31 -10 -14 0 -22 -4 -19 -10 3 -5 19 -7
35 -4 25 5 28 4 24 -13 -4 -13 0 -20 10 -20 11 0 16 10 16 34 0 32 -21 46 -35
23z"/>
<path d="M1900 7762 c0 -17 4 -32 9 -32 19 0 22 20 7 42 -16 22 -16 22 -16
-10z"/>
<path d="M2243 7770 c-1 -11 2 -20 8 -20 5 0 9 9 9 20 0 11 -4 20 -8 20 -4 0
-8 -9 -9 -20z"/>
<path d="M2160 7764 c0 -12 7 -27 15 -34 19 -16 19 -10 0 26 -13 25 -15 26
-15 8z"/>
<path d="M2478 7773 c-19 -5 -24 -18 -9 -27 14 -9 41 4 41 20 0 14 -3 15 -32
7z"/>
<path d="M2845 7770 c3 -5 8 -10 11 -10 2 0 4 5 4 10 0 6 -5 10 -11 10 -5 0
-7 -4 -4 -10z"/>
<path d="M1866 7745 c-3 -9 0 -15 9 -15 9 0 12 6 9 15 -4 8 -7 15 -9 15 -2 0
-5 -7 -9 -15z"/>
<path d="M2763 7745 c2 -5 13 -11 25 -13 15 -2 20 1 17 10 -6 16 -47 19 -42 3z"/>
<path d="M3188 7753 c6 -2 18 -2 25 0 6 3 1 5 -13 5 -14 0 -19 -2 -12 -5z"/>
<path d="M3660 7745 c0 -8 -4 -15 -10 -15 -5 0 -10 -8 -9 -17 0 -11 3 -13 6
-5 11 26 29 11 28 -24 -2 -40 13 -51 44 -35 17 9 23 8 32 -8 12 -18 13 -18 46
0 18 11 42 19 53 19 13 0 18 6 17 20 -1 19 -7 21 -51 18 -44 -3 -51 -6 -56
-28 -7 -28 -14 -20 -24 25 -5 22 -4 26 4 15 5 -8 10 -10 10 -5 -1 6 -9 20 -19
33 -22 25 -71 31 -71 7z"/>
<path d="M2660 7740 c0 -5 -5 -9 -11 -7 -6 1 -13 -3 -16 -10 -3 -7 3 -9 16 -6
18 4 31 33 16 33 -3 0 -5 -4 -5 -10z"/>
<path d="M2541 7724 c0 -11 3 -14 6 -6 3 7 2 16 -1 19 -3 4 -6 -2 -5 -13z"/>
<path d="M2120 7706 c-13 -15 -20 -32 -17 -40 4 -9 2 -16 -4 -16 -5 0 -12 7
-15 15 -4 8 -10 12 -15 9 -5 -3 -7 -10 -4 -15 4 -5 1 -9 -4 -9 -6 0 -11 6 -11
14 0 8 -5 18 -12 22 -8 5 -9 -2 -5 -25 4 -20 3 -30 -3 -26 -6 3 -10 0 -10 -9
0 -8 -6 -16 -12 -19 -10 -3 -9 -8 2 -22 11 -14 12 -19 3 -22 -7 -3 -20 -20
-29 -38 -14 -31 -14 -36 0 -57 9 -12 16 -27 16 -33 0 -5 -4 -4 -9 3 -6 10 -10
5 -14 -17 -4 -18 -13 -31 -22 -31 -8 0 -15 4 -15 9 0 5 -9 7 -20 4 -37 -10
-15 -28 32 -26 l45 2 -11 -57 c-10 -51 -12 -66 -7 -88 0 -4 8 -1 16 6 9 8 13
23 10 40 -7 40 18 59 45 35 11 -10 20 -24 20 -31 0 -21 -29 -44 -48 -37 -9 3
-14 3 -10 -1 4 -5 2 -20 -4 -35 -5 -14 -11 -35 -13 -46 -5 -35 -10 -50 -20
-57 -12 -9 14 -59 34 -66 8 -3 11 0 8 5 -4 6 3 20 15 33 18 19 19 26 9 42 -11
17 -10 19 6 16 21 -4 55 44 47 67 -4 8 -2 15 4 15 6 0 13 14 17 30 5 21 13 30
26 30 23 0 27 -45 4 -54 -8 -3 -15 -15 -15 -26 0 -12 -3 -19 -7 -17 -5 3 -8
-12 -8 -34 0 -21 3 -39 7 -39 4 0 6 -12 5 -26 -1 -15 4 -29 11 -31 6 -3 12 2
12 9 0 8 10 24 23 36 l22 21 12 -25 c6 -13 7 -26 3 -29 -9 -6 -8 -24 3 -42 5
-7 5 -13 0 -13 -12 0 -10 -57 2 -68 6 -6 21 -13 34 -17 18 -6 23 -4 19 6 -6
15 16 42 26 32 3 -3 13 10 21 30 8 21 20 37 25 37 15 0 12 -19 -5 -36 -10 -10
-13 -25 -9 -42 11 -46 19 -50 69 -39 47 11 47 12 28 64 -3 6 4 16 16 22 15 8
23 7 35 -4 13 -13 16 -13 30 1 17 17 40 10 29 -9 -3 -7 3 -4 14 6 11 9 23 14
26 10 4 -3 7 8 7 25 0 18 -4 32 -10 32 -5 0 -7 13 -4 30 5 22 2 31 -10 36 -9
3 -16 17 -16 30 0 25 -26 44 -49 36 -10 -3 -12 1 -8 17 4 18 2 21 -13 16 -11
-3 -20 0 -24 10 -3 8 0 15 7 15 9 0 12 11 9 36 -3 26 -1 35 7 30 22 -14 10 2
-13 17 -21 14 -25 15 -30 1 -3 -8 -2 -12 4 -9 14 9 12 -37 -3 -56 -14 -18 -37
-14 -37 7 0 22 -45 85 -55 76 -5 -4 -5 -1 0 6 8 14 -12 62 -26 62 -4 0 -9 -12
-11 -27 -5 -47 -28 -40 -28 9 0 24 -7 56 -15 72 -19 35 -19 32 4 53 28 26 36
66 16 83 -14 12 -18 12 -25 0 -12 -20 -19 -10 -26 38 -4 30 -2 42 6 42 10 0
10 3 1 14 -7 8 -21 13 -31 11 -11 -2 -22 0 -25 6 -10 16 -31 10 -55 -15z m108
-318 c-2 -6 -10 -14 -16 -16 -7 -2 -10 2 -6 12 7 18 28 22 22 4z m117 -92
c-11 -8 -24 -12 -29 -8 -5 3 -1 9 10 13 31 12 39 10 19 -5z m40 -92 c-30 -12
-63 -8 -48 6 10 11 55 18 68 11 5 -3 -4 -10 -20 -17z m-85 -3 c0 -5 3 -18 6
-28 5 -16 4 -16 -10 1 -18 23 -20 36 -6 36 6 0 10 -4 10 -9z m-16 -76 c3 -8 1
-15 -5 -15 -6 0 -7 -4 -4 -10 10 -15 -2 -12 -20 6 -13 14 -14 19 -3 25 19 12
25 11 32 -6z"/>
<path d="M3264 7709 c-3 -6 -1 -16 4 -21 8 -8 11 -5 9 11 -1 24 -3 25 -13 10z"/>
<path d="M2280 7684 c0 -13 18 -39 24 -34 2 3 -2 14 -10 24 -8 11 -14 16 -14
10z"/>
<path d="M2665 7670 c3 -5 11 -10 16 -10 6 0 7 5 4 10 -3 6 -11 10 -16 10 -6
0 -7 -4 -4 -10z"/>
<path d="M1702 7634 c-14 -16 -24 -121 -12 -129 5 -3 7 -12 4 -19 -5 -14 24
-31 35 -21 3 4 7 40 9 80 3 54 0 78 -10 88 -11 11 -16 12 -26 1z"/>
<path d="M1790 7620 c0 -5 5 -10 10 -10 6 0 10 5 10 10 0 6 -4 10 -10 10 -5 0
-10 -4 -10 -10z"/>
<path d="M3761 7593 c-1 -17 11 -22 34 -12 19 9 19 9 -2 5 -12 -2 -24 1 -27 8
-3 8 -5 8 -5 -1z"/>
<path d="M2296 7573 c-6 -14 -5 -15 5 -6 7 7 10 15 7 18 -3 3 -9 -2 -12 -12z"/>
<path d="M3741 7565 c-1 -6 -20 -30 -42 -54 -23 -24 -33 -39 -23 -33 31 17 76
71 71 84 -3 7 -6 8 -6 3z"/>
<path d="M2400 7514 c0 -22 2 -24 14 -14 8 6 12 18 9 26 -9 23 -23 16 -23 -12z"/>
<path d="M1910 7509 c0 -15 18 -19 23 -6 3 8 -1 14 -9 14 -8 0 -14 -4 -14 -8z"/>
<path d="M3560 7505 c-10 -12 -10 -15 4 -15 9 0 16 7 16 15 0 8 -2 15 -4 15
-2 0 -9 -7 -16 -15z"/>
<path d="M3248 7473 c7 -3 16 -2 19 1 4 3 -2 6 -13 5 -11 0 -14 -3 -6 -6z"/>
<path d="M1915 7452 c-8 -21 -1 -24 28 -13 37 14 40 28 7 28 -16 0 -32 -7 -35
-15z"/>
<path d="M2390 7455 c-15 -18 -6 -45 13 -45 16 0 31 16 39 40 8 21 -36 25 -52
5z"/>
<path d="M1134 7405 c3 -21 16 -31 16 -12 0 9 -4 18 -9 21 -5 4 -8 -1 -7 -9z"/>
<path d="M3497 7397 c6 -11 -28 -38 -43 -33 -6 2 -11 -2 -11 -10 0 -20 7 -18
51 19 32 27 35 33 18 33 -11 0 -18 -4 -15 -9z"/>
<path d="M1700 7379 c-12 -22 -8 -35 8 -25 13 8 22 46 11 46 -4 0 -13 -9 -19
-21z"/>
<path d="M1054 7330 c3 -16 1 -30 -4 -30 -5 0 -7 -7 -4 -15 7 -17 -11 -21 -21
-5 -3 6 -11 10 -17 10 -5 0 0 -9 13 -20 13 -10 18 -19 12 -20 -18 0 -16 -27 2
-34 8 -3 15 -9 14 -13 -1 -4 2 -18 6 -31 6 -18 10 -20 21 -11 8 6 26 9 40 6
25 -4 26 -3 19 32 -4 20 -8 48 -8 64 0 15 -4 27 -9 27 -5 0 -6 -4 -3 -10 3 -5
4 -10 1 -10 -3 0 -17 20 -32 45 -30 53 -39 57 -30 15z"/>
<path d="M1235 7352 c-15 -9 -35 -82 -34 -118 0 -17 3 -23 6 -14 7 16 33 39
46 40 4 0 7 -7 7 -15 0 -8 10 -20 23 -26 20 -11 21 -11 8 5 -22 26 -4 32 19 6
11 -13 20 -18 20 -13 0 6 -7 16 -15 23 -9 7 -14 19 -11 27 6 15 -5 17 -22 3
-6 -6 -10 -7 -7 -4 2 4 -6 14 -18 24 -19 15 -20 21 -9 44 11 26 7 32 -13 18z"/>
<path d="M2371 7353 c-1 -6 3 -14 8 -17 13 -9 42 4 35 16 -3 5 -11 5 -19 -2
-10 -8 -14 -7 -18 2 -4 9 -6 9 -6 1z"/>
<path d="M5594 7328 c-4 -15 -1 -25 10 -34 11 -8 13 -14 7 -19 -6 -3 -11 -21
-11 -38 0 -25 7 -36 29 -49 17 -9 38 -15 47 -14 21 3 29 56 8 56 -15 0 -17 9
-14 48 1 14 -4 22 -14 22 -9 0 -16 -6 -17 -12 0 -7 -4 -4 -9 7 -12 29 -12 35
4 35 8 0 18 5 21 10 4 6 -6 10 -24 10 -22 0 -31 -6 -37 -22z"/>
<path d="M1277 7315 c-10 -14 -13 -25 -7 -25 5 0 10 5 10 11 0 6 7 8 16 5 9
-4 13 -2 8 5 -4 6 0 15 7 20 12 7 11 9 -1 9 -8 -1 -23 -12 -33 -25z"/>
<path d="M1100 7310 c0 -5 5 -10 11 -10 5 0 7 5 4 10 -3 6 -8 10 -11 10 -2 0
-4 -4 -4 -10z"/>
<path d="M1770 7289 c0 -5 5 -7 10 -4 6 3 10 8 10 11 0 2 -4 4 -10 4 -5 0 -10
-5 -10 -11z"/>
<path d="M5787 7276 c-3 -8 -2 -18 4 -22 16 -9 22 2 11 21 -8 15 -10 16 -15 1z"/>
<path d="M1371 7270 c-10 -5 -9 -9 4 -14 9 -3 13 -10 10 -16 -3 -6 1 -13 9
-16 9 -3 13 -10 10 -15 -3 -5 7 -9 21 -9 15 0 24 4 20 10 -3 6 -1 10 4 10 21
0 10 20 -14 26 -14 3 -25 10 -25 14 0 12 -25 19 -39 10z"/>
<path d="M1820 7260 c0 -5 5 -10 11 -10 5 0 7 5 4 10 -3 6 -8 10 -11 10 -2 0
-4 -4 -4 -10z"/>
<path d="M1890 7250 c-8 -5 -11 -12 -7 -16 4 -4 15 0 24 9 18 18 8 23 -17 7z"/>
<path d="M2480 7250 c0 -5 7 -10 15 -10 8 0 15 5 15 10 0 6 -7 10 -15 10 -8 0
-15 -4 -15 -10z"/>
<path d="M1702 7232 c-7 -9 -10 -11 -6 -3 4 8 3 12 -2 8 -6 -3 -10 -18 -9 -34
0 -15 -4 -31 -10 -35 -5 -4 2 -8 16 -8 27 0 57 25 46 37 -4 3 -2 12 4 19 7 9
5 15 -8 23 -14 7 -22 5 -31 -7z"/>
<path d="M945 7220 c3 -5 8 -10 11 -10 2 0 4 5 4 10 0 6 -5 10 -11 10 -5 0 -7
-4 -4 -10z"/>
<path d="M1343 7213 c-4 -10 -11 -22 -17 -26 -7 -6 -4 -7 6 -4 12 4 16 0 15
-12 -2 -25 -27 -22 -40 6 -8 18 -13 20 -24 12 -7 -6 -13 -17 -13 -25 0 -22 22
-64 31 -58 15 9 10 -4 -8 -21 -13 -14 -14 -21 -4 -36 6 -11 9 -24 6 -29 -3 -4
0 -10 6 -12 7 -2 7 -12 -2 -31 -11 -24 -10 -29 11 -47 13 -12 31 -19 39 -18
21 4 36 57 23 79 -16 26 0 32 50 18 31 -8 43 -8 46 0 2 6 8 9 13 5 5 -3 9 0 9
5 0 6 -4 11 -10 11 -5 0 -10 5 -10 10 0 16 30 12 36 -5 4 -8 12 -15 20 -15 15
0 15 1 -20 69 -14 29 -14 32 -1 21 13 -11 15 -8 15 19 0 23 -5 31 -17 31 -15
0 -16 2 -3 10 13 8 13 10 -1 10 -9 0 -19 -3 -23 -7 -15 -15 -56 -14 -56 2 0 8
-7 15 -15 15 -8 0 -15 5 -15 10 0 6 -3 9 -7 9 -20 -3 -34 2 -28 11 3 6 4 10 0
10 -3 0 -9 -8 -12 -17z m27 -100 c0 -7 -6 -13 -13 -13 -8 0 -14 6 -14 13 0 8
6 14 14 14 7 0 13 -6 13 -14z m95 -11 c-3 -3 -15 -7 -26 -9 -16 -2 -18 -1 -7
11 7 7 19 11 26 9 7 -3 10 -8 7 -11z m-42 -48 c4 -20 1 -24 -12 -18 -9 4 -26
6 -39 5 -21 -1 -22 1 -8 14 8 8 20 15 26 15 6 0 8 4 5 10 -3 5 0 7 8 4 8 -3
17 -17 20 -30z"/>
<path d="M1937 7210 c-9 -11 -17 -25 -17 -32 0 -6 -9 -3 -21 8 -16 14 -22 16
-28 5 -7 -11 -11 -10 -19 4 -9 17 -11 17 -33 1 -13 -9 -18 -16 -11 -16 10 0
10 -5 2 -20 -6 -11 -7 -20 -3 -19 20 3 34 -2 28 -11 -3 -5 -1 -10 4 -10 6 0
11 -6 11 -13 0 -22 87 -15 104 9 13 16 13 21 0 35 -14 15 -13 17 3 15 12 -1
17 5 15 18 -2 12 1 15 8 11 9 -6 9 -2 1 14 -14 26 -22 26 -44 1z m33 -4 c0 -3
-4 -8 -10 -11 -5 -3 -10 -1 -10 4 0 6 5 11 10 11 6 0 10 -2 10 -4z"/>
<path d="M6060 7220 c-13 -8 -12 -10 3 -10 9 0 17 5 17 10 0 12 -1 12 -20 0z"/>
<path d="M15 7200 c-9 -27 6 -50 16 -24 4 10 8 25 8 32 1 20 -17 14 -24 -8z"/>
<path d="M5483 7209 c-23 -8 -22 -39 1 -39 6 0 4 -5 -4 -10 -13 -9 -13 -10 0
-10 10 0 11 -3 3 -8 -6 -4 -12 -14 -13 -22 -5 -34 1 -45 25 -45 17 0 24 4 20
13 -3 7 0 10 5 7 5 -3 7 -19 3 -36 -5 -25 -2 -31 16 -36 17 -4 19 -8 9 -14
-10 -7 -9 -9 5 -9 14 0 16 -4 8 -19 -8 -14 -7 -22 4 -31 8 -7 13 -16 10 -20
-3 -5 0 -21 7 -37 6 -15 12 -30 12 -33 1 -3 4 -9 7 -15 4 -5 9 -23 13 -38 l7
-28 19 23 c14 16 18 18 14 5 -3 -9 1 -28 10 -42 20 -30 14 -45 -17 -45 -12 0
-17 -4 -12 -8 15 -10 36 -85 27 -94 -11 -11 -2 -68 10 -68 6 0 8 -11 6 -24 -3
-15 0 -27 8 -30 18 -7 18 -34 -1 -53 -8 -8 -13 -18 -10 -23 3 -4 8 -41 11 -81
3 -41 8 -77 10 -80 2 -4 -4 -10 -14 -14 -15 -6 -13 -9 11 -21 31 -17 35 -24 9
-17 -15 4 -17 -1 -14 -38 4 -38 6 -40 16 -22 14 25 36 19 36 -10 0 -14 11 -28
30 -39 38 -22 38 -32 0 -50 -27 -13 -29 -17 -15 -28 8 -7 24 -10 35 -7 13 3
24 -1 30 -13 8 -16 14 -17 45 -7 21 6 34 16 31 23 -2 6 0 16 6 22 8 8 8 15 1
24 -6 7 -13 27 -15 43 -3 17 -3 25 -1 18 7 -20 31 -22 47 -4 15 17 14 20 -26
47 -24 16 -47 35 -51 42 -5 7 -13 10 -19 6 -6 -4 -5 -9 3 -15 9 -5 4 -7 -15
-6 -34 3 -49 27 -17 27 12 0 21 6 21 16 0 8 4 12 10 9 6 -3 7 1 4 9 -3 9 -1
16 6 16 6 0 8 5 4 11 -3 6 -1 15 6 19 18 11 22 61 7 79 -10 12 -9 13 10 3 22
-12 22 -12 8 23 -19 43 -19 45 1 45 9 0 12 -5 8 -12 -5 -9 -2 -9 9 1 9 7 17
10 17 6 0 -5 9 0 20 10 11 10 20 13 20 7 0 -6 9 -14 20 -17 22 -7 27 -31 8
-38 -7 -3 10 -3 38 0 50 5 51 5 79 -34 22 -30 40 -43 72 -51 66 -18 55 -35
-19 -29 -35 2 -70 8 -80 12 -11 5 -16 1 -15 -12 2 -12 -4 -17 -15 -15 -10 2
-18 -2 -18 -9 0 -6 8 -9 18 -7 10 3 23 -1 30 -9 7 -7 17 -11 23 -8 5 4 9 0 9
-9 0 -8 3 -22 7 -32 4 -12 3 -15 -5 -10 -7 4 -14 -4 -18 -21 -4 -15 -11 -34
-17 -41 -5 -7 -7 -15 -4 -19 4 -3 -8 -21 -26 -38 -39 -38 -38 -57 4 -48 18 3
29 1 29 -6 0 -21 36 -11 61 18 19 22 32 28 48 24 24 -6 26 -14 9 -31 -9 -9 -9
-12 -1 -12 7 0 15 9 18 20 4 11 11 18 16 15 5 -4 21 7 35 22 l27 28 -6 -32
c-4 -18 -2 -35 3 -38 6 -4 8 -10 5 -15 -9 -15 16 -69 31 -63 7 3 21 -2 29 -11
9 -9 13 -16 9 -16 -5 0 -3 -5 3 -11 14 -14 6 -39 -10 -33 -8 3 -12 -7 -11 -28
1 -22 7 -35 22 -41 12 -6 22 -17 22 -25 0 -9 3 -12 6 -9 7 7 63 -61 64 -76 0
-10 -23 -4 -32 8 -4 5 -10 2 -14 -9 -4 -11 -2 -21 6 -26 7 -4 10 -12 6 -18 -7
-12 29 -26 44 -17 13 8 13 -16 0 -50 -10 -26 -9 -26 20 -20 26 6 30 4 30 -14
0 -12 -5 -20 -11 -19 -6 2 -14 -3 -16 -9 -3 -8 4 -13 16 -13 31 0 35 -19 10
-46 l-24 -25 44 4 c25 2 47 10 52 19 11 20 76 22 87 2 8 -15 10 -15 15 -1 8
20 76 55 100 52 9 -2 17 2 17 9 0 8 -12 11 -35 8 -27 -3 -35 -1 -35 12 0 9 5
17 10 17 6 1 14 2 19 3 5 0 13 5 18 10 4 5 3 6 -3 3 -7 -4 -15 0 -18 9 -8 22
-8 26 3 19 5 -3 13 -1 16 5 4 6 15 8 26 5 23 -7 35 16 22 40 -5 9 -27 27 -48
39 l-38 23 37 5 c20 2 39 0 42 -4 3 -4 16 -8 29 -8 13 0 25 -5 27 -11 5 -14
38 0 38 16 0 18 -32 28 -43 13 -6 -9 -7 -8 -3 5 3 11 0 17 -9 17 -8 0 -12 6
-9 14 5 12 9 11 25 -5 20 -20 54 -25 64 -9 4 6 -6 11 -22 11 -17 1 -21 3 -10
6 20 5 23 23 4 23 -8 0 -19 11 -25 25 -10 22 -8 28 25 60 30 29 33 35 17 36
-15 0 -16 2 -4 7 16 7 20 25 8 38 -5 4 -8 -1 -8 -12 -1 -14 -5 -11 -14 11 -8
17 -23 36 -35 42 -23 14 -19 39 8 46 10 2 21 17 24 34 4 21 16 35 39 46 18 9
27 17 21 17 -27 0 -11 18 21 24 33 6 52 28 40 47 -3 5 2 9 10 9 21 0 20 6 -3
29 -14 14 -22 16 -31 8 -9 -9 -11 -9 -8 2 4 16 -29 24 -38 9 -4 -6 1 -17 11
-24 10 -7 15 -20 12 -29 -8 -18 -37 -20 -37 -2 0 7 -9 31 -20 53 -18 36 -20
37 -26 17 -3 -13 -13 -23 -21 -23 -8 0 -20 -13 -26 -29 -6 -16 -22 -35 -36
-41 -25 -12 -25 -13 -6 -21 11 -4 16 -8 10 -9 -5 0 -2 -5 8 -11 19 -11 21 -18
8 -38 -6 -10 -13 -10 -29 -2 -24 13 -55 4 -45 -13 4 -6 -1 -5 -10 3 -10 8 -20
11 -24 8 -11 -12 -21 -92 -12 -98 6 -3 3 -11 -6 -19 -25 -20 -18 -36 15 -34
26 2 28 0 20 -16 -6 -10 -10 -26 -10 -36 0 -16 -26 -43 -42 -44 -5 0 -8 7 -8
15 0 8 7 15 15 15 8 0 15 3 15 6 0 11 -45 43 -61 44 -9 0 -22 7 -29 15 -11 13
-9 19 8 36 21 19 22 19 22 1 0 -10 -4 -22 -10 -28 -6 -6 0 -10 18 -11 15 0 19
1 9 4 -9 2 -15 9 -11 14 3 5 10 6 16 3 7 -4 8 -2 4 5 -4 6 -2 18 4 26 10 13 8
15 -18 15 -18 0 -32 -6 -36 -16 -6 -16 -29 -16 -26 0 2 9 -19 26 -32 26 -5 0
-8 -8 -8 -17 0 -10 -4 -14 -8 -8 -4 6 -17 11 -29 12 -18 2 -23 -2 -23 -22 0
-31 -28 -34 -53 -5 -9 11 -23 20 -30 20 -8 0 -13 15 -13 40 -1 22 2 40 7 40 5
0 9 -7 9 -15 0 -10 10 -15 30 -15 23 0 30 4 30 20 0 11 7 20 15 20 10 0 15
-10 15 -34 0 -38 14 -55 24 -29 4 9 2 19 -4 23 -6 4 -7 17 -1 36 10 36 -7 63
-56 88 -18 9 -33 19 -33 22 0 3 4 3 9 0 5 -3 11 0 14 7 10 26 -5 64 -33 80
-20 12 -29 27 -34 57 -6 37 -7 39 -32 30 -33 -13 -31 -13 -29 12 1 12 10 25
21 29 28 11 34 10 31 -3 -1 -7 7 -13 18 -13 17 0 20 6 17 41 -2 46 19 117 46
148 13 16 13 18 1 9 -11 -9 -19 -9 -26 -2 -8 8 -18 7 -34 -1 -13 -7 -21 -9
-17 -5 16 17 -13 45 -46 45 -53 0 -89 -55 -55 -86 10 -9 19 -25 19 -35 0 -9 6
-19 13 -22 9 -3 7 -10 -6 -23 -17 -18 -19 -18 -52 21 -25 30 -34 35 -35 22 0
-10 -4 -16 -8 -13 -4 2 -14 1 -21 -3 -10 -7 -11 -13 -1 -31 6 -12 13 -34 15
-48 2 -15 2 -22 -1 -15 -3 7 -12 9 -19 7 -16 -6 -49 61 -41 82 3 8 -1 11 -9 8
-7 -3 -12 -16 -10 -30 2 -21 -2 -24 -30 -24 -27 0 -34 5 -39 25 -4 14 -4 30
-1 35 3 5 -3 15 -15 22 -11 7 -20 18 -20 25 0 15 -16 17 -25 3 -9 -15 -38 -12
-32 3 2 6 9 11 14 10 5 -1 10 5 10 13 0 8 -6 13 -13 10 -7 -3 -20 4 -29 14
-15 17 -15 20 1 44 14 22 22 25 49 20 39 -7 78 3 69 18 -4 6 -10 5 -16 -3 -7
-11 -8 -9 -4 4 3 10 0 25 -7 32 -29 34 -37 45 -31 45 3 0 1 6 -5 14 -13 15
-11 52 3 74 7 11 4 12 -11 4 -15 -8 -31 -5 -72 15 -48 24 -53 25 -64 9 -13
-18 -46 -13 -48 8 0 6 -6 -2 -14 -18 -12 -28 -11 -31 21 -60 33 -29 44 -56 24
-56 -5 0 -7 -7 -4 -15 4 -8 15 -15 25 -15 10 0 19 -5 19 -11 0 -5 -4 -8 -9 -5
-5 3 -12 -1 -15 -10 -8 -20 -26 -8 -26 17 0 11 -7 19 -16 19 -8 0 -12 -4 -9
-10 3 -5 -1 -10 -10 -10 -9 0 -13 5 -10 10 5 9 -7 14 -27 11 -4 0 -10 9 -14
22 -4 12 -12 25 -18 29 -8 6 -7 8 2 8 6 0 12 9 12 20 0 13 -7 20 -19 20 -24 0
-36 -16 -19 -23 9 -4 9 -6 -2 -7 -8 -1 -23 -3 -32 -5 -13 -2 -18 3 -18 21 0
13 -9 33 -20 44 -24 24 -24 27 -5 46 13 14 16 13 23 -6 8 -21 8 -21 19 3 15
33 6 70 -16 62 -18 -7 -21 -8 -38 -6 -16 1 -17 43 -2 58 8 8 15 35 18 76 1 5
6 5 11 2 6 -3 10 -2 10 4 0 17 -18 22 -23 7 -7 -18 -47 -9 -47 11 0 11 -4 11
-20 3 -17 -9 -20 -8 -20 10 0 31 -20 62 -35 56 -8 -3 -15 -1 -17 3 -2 5 -13 5
-25 0z m108 -186 c-9 -16 -10 -14 -11 12 0 21 3 26 11 18 8 -8 8 -16 0 -30z
m325 -461 c2 -9 8 -18 13 -20 6 -2 11 -8 11 -13 0 -6 -4 -7 -10 -4 -5 3 -10 1
-10 -4 0 -6 -7 -11 -16 -11 -12 0 -15 8 -10 38 3 20 5 39 6 41 1 10 14 -11 16
-27z m97 -18 c-8 -4 -9 -13 -3 -30 6 -14 6 -24 0 -24 -5 0 -12 9 -15 20 -4 11
-10 18 -15 15 -5 -3 -11 -1 -14 4 -4 5 4 12 16 14 32 6 45 6 31 1z m137 -120
c0 -8 -4 -12 -10 -9 -5 3 -10 10 -10 16 0 5 5 9 10 9 6 0 10 -7 10 -16z m87
-49 c0 -22 -14 -18 -20 4 -3 13 0 18 7 15 7 -3 13 -11 13 -19z m648 -294 c3
-5 0 -13 -6 -17 -7 -4 -9 -3 -5 4 3 5 0 13 -6 15 -9 4 -10 6 -1 6 6 1 14 -3
18 -8z m-1041 -9 c2 -4 0 -14 -5 -22 -8 -13 -10 -13 -19 0 -5 8 -10 18 -10 23
0 10 28 9 34 -1z m1014 -80 c7 -2 12 -13 12 -24 0 -20 -1 -19 -24 5 -21 22
-23 33 -18 69 l6 43 7 -44 c3 -25 11 -47 17 -49z m-43 48 c3 -5 1 -10 -4 -10
-6 0 -11 5 -11 10 0 6 2 10 4 10 3 0 8 -4 11 -10z m-255 -85 c0 -15 -40 -58
-48 -51 -2 2 4 18 13 35 16 33 35 41 35 16z m56 -40 c1 -8 -2 -15 -7 -15 -4 0
-6 -8 -3 -17 2 -10 -1 -8 -7 4 -6 12 -9 30 -5 39 7 18 19 12 22 -11z m-136
-143 c0 -13 -12 -22 -22 -16 -10 6 -1 24 13 24 5 0 9 -4 9 -8z m320 -2 c0 -5
-8 -10 -17 -10 -15 0 -16 2 -3 10 19 12 20 12 20 0z"/>
<path d="M1515 7200 c-3 -5 -1 -10 4 -10 6 0 11 5 11 10 0 6 -2 10 -4 10 -3 0
-8 -4 -11 -10z"/>
<path d="M5400 7196 c0 -2 8 -10 18 -17 15 -13 16 -12 3 4 -13 16 -21 21 -21
13z"/>
<path d="M6094 7135 c2 -36 0 -45 -12 -40 -7 3 -16 5 -18 5 -10 0 -3 29 9 33
6 2 9 7 5 11 -12 14 -46 -13 -51 -41 -3 -15 -2 -29 3 -31 4 -2 6 -12 3 -22 -8
-29 -73 -29 -73 0 0 14 -6 20 -22 19 -17 -1 -19 -2 -5 -6 9 -2 17 -13 17 -23
0 -22 -16 -35 -25 -20 -11 18 -20 10 -20 -19 -1 -27 1 -28 20 -18 25 14 84 15
79 2 -3 -6 9 -18 26 -28 23 -14 30 -15 30 -5 0 8 14 22 30 31 30 18 39 40 20
52 -10 6 -2 36 12 46 10 6 -12 99 -23 99 -4 0 -6 -20 -5 -45z"/>
<path d="M5690 7144 c-11 -12 -11 -17 -2 -23 7 -4 10 -15 6 -24 -3 -9 -11 -14
-16 -11 -6 4 -9 1 -6 -7 3 -8 11 -14 19 -14 8 0 14 -7 13 -16 -1 -8 14 -25 32
-37 44 -29 46 -6 4 31 -33 30 -42 64 -12 52 9 -4 33 -9 52 -12 19 -3 40 -11
45 -18 13 -15 65 -8 66 9 0 6 1 23 3 37 1 24 0 25 -35 19 -32 -6 -38 -4 -44
14 -7 20 -7 20 -14 -4 -8 -28 -36 -34 -84 -17 -21 7 -25 12 -16 18 7 4 11 11
8 14 -4 3 -12 -2 -19 -11z"/>
<path d="M1197 7143 c-12 -11 -8 -30 7 -30 8 0 11 8 8 19 -5 20 -6 21 -15 11z"/>
<path d="M5909 7130 c-6 -38 13 -52 28 -22 16 29 16 42 3 42 -5 0 -10 -10 -11
-22 -1 -22 -1 -22 -8 2 l-8 25 -4 -25z"/>
<path d="M264 7129 c-2 -4 3 -9 11 -13 8 -3 15 -1 15 5 0 6 5 7 10 4 6 -3 10
-2 10 4 0 11 -39 11 -46 0z"/>
<path d="M70 7115 c0 -8 5 -15 10 -15 6 0 10 7 10 15 0 8 -4 15 -10 15 -5 0
-10 -7 -10 -15z"/>
<path d="M5957 7106 c-3 -8 -2 -18 3 -21 13 -8 20 9 11 24 -6 10 -10 9 -14 -3z"/>
<path d="M417 7093 c-13 -13 -7 -35 8 -29 8 3 15 0 15 -7 0 -7 5 -4 11 6 16
27 -13 52 -34 30z"/>
<path d="M1540 7085 c7 -9 15 -13 17 -11 7 7 -7 26 -19 26 -6 0 -6 -6 2 -15z"/>
<path d="M1188 7076 c-23 -17 -23 -30 -1 -22 16 6 16 6 1 -11 -9 -10 -17 -21
-18 -25 -4 -38 -14 -68 -21 -68 -5 0 -9 -4 -9 -10 0 -18 35 -10 48 10 7 12 17
18 22 15 6 -4 10 20 10 59 0 69 -3 74 -32 52z"/>
<path d="M30 7070 c0 -5 5 -10 10 -10 6 0 10 5 10 10 0 6 -4 10 -10 10 -5 0
-10 -4 -10 -10z"/>
<path d="M542 7051 c-11 -6 -10 -11 3 -25 21 -20 44 -21 52 -1 3 9 4 17 2 19
-11 10 -46 14 -57 7z"/>
<path d="M481 7027 c-11 -14 -6 -27 10 -27 5 0 13 9 19 20 8 16 8 20 -3 20 -8
0 -20 -6 -26 -13z"/>
<path d="M848 7023 c7 -3 16 -2 19 1 4 3 -2 6 -13 5 -11 0 -14 -3 -6 -6z"/>
<path d="M956 7011 c-10 -16 -5 -21 29 -27 25 -4 27 -3 15 10 -7 9 -16 14 -20
11 -5 -3 -10 0 -12 7 -3 9 -6 9 -12 -1z"/>
<path d="M1066 7009 c6 -11 -24 -31 -36 -24 -5 3 -10 -1 -10 -9 0 -8 8 -14 18
-14 9 1 26 -2 37 -5 17 -6 20 -2 21 26 0 25 -4 33 -17 33 -10 0 -16 -3 -13 -7z"/>
<path d="M1526 6996 c3 -8 12 -17 20 -20 12 -4 12 -2 4 14 -12 23 -32 27 -24
6z"/>
<path d="M2942 6994 c-9 -10 -9 -14 -1 -14 6 0 9 -7 5 -15 -3 -10 1 -15 13
-15 10 0 21 7 25 15 3 9 0 15 -10 15 -8 0 -13 4 -9 9 9 16 -9 20 -23 5z"/>
<path d="M5775 6990 c-4 -11 -10 -18 -15 -15 -5 3 -11 1 -15 -5 -3 -5 -1 -10
4 -10 6 0 11 -6 11 -14 0 -15 58 -28 66 -14 3 4 12 1 21 -7 22 -22 30 -9 9 14
-11 12 -15 25 -10 33 4 7 4 10 -1 6 -4 -4 -15 0 -24 10 -23 24 -39 25 -46 2z"/>
<path d="M710 6985 c-10 -12 -10 -15 2 -15 8 0 15 7 15 15 0 8 -1 15 -2 15 -2
0 -8 -7 -15 -15z"/>
<path d="M2570 6968 c-7 -16 -17 -28 -22 -28 -5 0 -13 -11 -18 -25 -7 -18 -16
-24 -34 -23 -16 2 -22 7 -18 17 4 11 -2 12 -34 7 -21 -4 -41 -9 -42 -11 -10
-9 35 -54 48 -49 31 12 44 8 51 -16 4 -16 7 -19 8 -7 1 9 6 17 11 17 6 0 10 6
10 13 0 7 9 18 21 25 15 10 18 16 10 26 -18 21 12 39 51 31 29 -7 31 -6 19 9
-7 9 -19 16 -26 16 -8 0 -15 6 -18 13 -2 7 -10 0 -17 -15z m-110 -88 c0 -5 -4
-10 -10 -10 -5 0 -10 5 -10 10 0 6 5 10 10 10 6 0 10 -4 10 -10z"/>
<path d="M770 6970 c0 -5 5 -10 11 -10 5 0 7 5 4 10 -3 6 -8 10 -11 10 -2 0
-4 -4 -4 -10z"/>
<path d="M508 6963 c7 -3 16 -2 19 1 4 3 -2 6 -13 5 -11 0 -14 -3 -6 -6z"/>
<path d="M843 6958 c-28 -14 -29 -20 -2 -36 12 -8 18 -9 15 -3 -4 5 -3 12 1
14 5 3 8 -10 9 -29 0 -18 -3 -31 -7 -28 -12 7 -22 -43 -13 -63 4 -10 6 -22 5
-26 -1 -5 3 -6 9 -2 6 3 8 11 5 16 -4 5 1 9 9 9 8 0 18 -4 21 -10 3 -5 11 -10
18 -10 6 0 1 7 -11 16 -25 17 -28 36 -9 53 10 8 17 7 25 -1 9 -9 12 -9 12 0 0
7 7 12 15 12 22 0 51 48 36 63 -8 8 -14 8 -23 -1 -17 -17 -23 -15 -36 13 -11
24 -42 35 -42 15 0 -5 -5 -10 -11 -10 -5 0 -7 5 -4 10 7 12 7 12 -22 -2z"/>
<path d="M1590 6936 c0 -10 4 -15 9 -12 5 4 12 0 14 -6 4 -8 6 -9 6 -2 1 6 -6
17 -14 24 -12 10 -15 9 -15 -4z"/>
<path d="M1015 6908 c-28 -15 -33 -26 -33 -64 0 -40 20 -45 36 -9 12 26 20 29
46 19 12 -5 13 -10 5 -26 -6 -11 -8 -31 -4 -45 3 -15 1 -29 -5 -33 -17 -11 0
-42 19 -34 28 12 56 10 53 -4 -1 -8 3 -12 9 -10 7 2 13 12 15 21 1 9 -1 15 -6
12 -4 -3 -15 -2 -24 1 -18 7 -14 38 11 87 11 23 17 26 28 17 8 -6 23 -9 34 -5
17 5 19 2 15 -22 -3 -15 -10 -30 -15 -34 -6 -3 -10 -8 -8 -10 2 -3 -9 -64 -16
-91 -2 -5 -3 -15 -4 -24 0 -8 -5 -13 -10 -10 -5 3 -16 -5 -25 -19 -9 -14 -12
-25 -6 -25 5 0 10 4 10 9 0 5 7 12 16 15 12 5 14 1 9 -15 -5 -15 -4 -19 4 -15
6 4 11 18 11 32 0 13 5 24 10 24 6 0 18 18 27 40 10 22 24 40 32 40 10 0 11
-3 3 -13 -13 -15 -3 -32 18 -33 8 -1 16 8 17 20 4 39 9 53 26 79 21 32 21 33
2 41 -8 3 -14 0 -12 -6 1 -7 -6 -13 -15 -15 -13 -3 -16 2 -12 25 4 24 1 31
-17 35 -11 3 -33 1 -47 -4 -30 -12 -52 -5 -52 15 0 17 -32 29 -75 28 -16 0
-34 3 -40 8 -6 5 -19 4 -30 -2z"/>
<path d="M1625 6900 c-7 -12 32 -49 53 -50 6 0 12 -5 12 -11 0 -6 -7 -8 -16
-5 -14 6 -15 4 -4 -9 12 -15 14 -15 22 -1 7 12 0 26 -26 52 -21 21 -37 31 -41
24z"/>
<path d="M2625 6888 c-4 -10 -3 -22 0 -28 3 -6 -1 -17 -9 -25 -14 -14 -14 -18
2 -34 9 -10 20 -16 25 -14 4 2 7 0 7 -4 0 -5 14 -14 30 -20 18 -7 30 -7 30 -2
0 6 5 7 10 4 6 -3 10 -1 10 4 0 6 -5 11 -11 11 -5 0 -7 5 -3 11 3 6 0 16 -7
21 -11 7 -11 11 -1 15 17 7 15 52 -3 59 -8 4 -12 10 -10 15 3 5 -10 8 -29 7
-25 -1 -37 -7 -41 -20z"/>
<path d="M1540 6885 c0 -18 19 -40 26 -32 4 4 0 15 -9 24 -9 10 -17 13 -17 8z"/>
<path d="M1710 6806 c0 -26 13 -35 25 -16 3 6 -1 17 -9 26 -15 14 -16 13 -16
-10z"/>
<path d="M3718 6803 c7 -3 16 -2 19 1 4 3 -2 6 -13 5 -11 0 -14 -3 -6 -6z"/>
<path d="M1340 6790 c0 -5 5 -10 11 -10 5 0 7 5 4 10 -3 6 -8 10 -11 10 -2 0
-4 -4 -4 -10z"/>
<path d="M1393 6788 c2 -7 10 -13 17 -13 7 0 15 6 18 13 2 7 -5 12 -18 12 -13
0 -20 -5 -17 -12z"/>
<path d="M2740 6790 c0 -5 5 -10 10 -10 6 0 10 5 10 10 0 6 -4 10 -10 10 -5 0
-10 -4 -10 -10z"/>
<path d="M956 6771 c-12 -19 -17 -83 -6 -76 5 3 10 14 10 24 0 9 5 22 12 29 9
9 9 15 1 23 -7 7 -13 8 -17 0z"/>
<path d="M1730 6770 c0 -5 8 -10 18 -10 10 0 24 -6 31 -12 11 -10 10 -8 0 10
-14 22 -49 31 -49 12z"/>
<path d="M6070 6771 c0 -5 5 -13 10 -16 6 -3 10 -2 10 4 0 5 -4 13 -10 16 -5
3 -10 2 -10 -4z"/>
<path d="M1317 6742 c-15 -16 -15 -19 -2 -19 8 0 13 3 10 5 -3 3 0 11 6 19 17
20 5 16 -14 -5z"/>
<path d="M5601 6734 c0 -11 3 -14 6 -6 3 7 2 16 -1 19 -3 4 -6 -2 -5 -13z"/>
<path d="M1613 6733 c-18 -7 -16 -23 2 -23 8 0 15 7 15 15 0 8 -1 15 -2 14 -2
0 -9 -3 -15 -6z"/>
<path d="M1466 6723 c-9 -9 -7 -33 3 -33 12 0 22 28 12 34 -5 3 -11 3 -15 -1z"/>
<path d="M1662 6713 c-11 -10 -25 -40 -32 -66 -7 -27 -18 -46 -24 -44 -6 3
-10 9 -9 16 3 13 -54 44 -61 33 -9 -14 24 -52 45 -52 17 0 24 -15 20 -42 0 -4
8 -6 18 -5 11 1 17 7 14 14 -3 7 -1 13 4 13 5 0 10 6 10 13 0 6 6 31 12 55 10
34 16 42 36 42 13 0 27 -5 31 -11 4 -8 9 -7 15 2 7 11 9 11 9 -1 0 -13 1 -13
11 0 8 12 9 11 6 -5 -2 -11 -9 -19 -15 -17 -7 1 -12 -5 -12 -13 0 -9 -9 -25
-19 -37 -11 -11 -23 -39 -26 -62 -4 -22 -11 -46 -17 -53 -5 -7 -5 -13 0 -17
11 -6 35 26 46 62 4 13 3 22 -3 22 -6 0 -8 7 -5 15 4 8 11 12 18 8 6 -3 8 -3
4 2 -5 5 1 14 12 22 11 8 20 23 20 34 0 10 4 19 9 19 6 0 9 8 8 19 0 11 -8 18
-17 16 -8 -1 -20 2 -27 7 -6 5 -17 8 -25 7 -26 -3 -39 1 -33 11 9 15 -1 12
-23 -7z"/>
<path d="M1303 6680 c1 -21 10 -18 13 5 1 8 -2 15 -6 15 -5 0 -8 -9 -7 -20z"/>
<path d="M1030 6669 c0 -4 -3 -16 -6 -26 -5 -16 -4 -16 10 1 12 15 16 16 16 5
0 -12 2 -12 10 1 14 22 12 26 -10 26 -11 0 -20 -3 -20 -7z"/>
<path d="M1826 6671 c-4 -7 -5 -15 -2 -18 9 -9 19 4 14 18 -4 11 -6 11 -12 0z"/>
<path d="M3254 6658 l-19 -23 23 19 c21 18 27 26 19 26 -2 0 -12 -10 -23 -22z"/>
<path d="M1853 6648 c-18 -23 -23 -48 -10 -48 8 -1 7 -5 -3 -13 -17 -14 -45
-69 -55 -107 l-6 -25 23 27 c46 53 62 83 61 111 0 16 6 31 13 34 18 7 18 33 0
33 -7 0 -18 -6 -23 -12z"/>
<path d="M1920 6641 c0 -5 7 -11 14 -14 10 -4 13 -1 9 9 -6 15 -23 19 -23 5z"/>
<path d="M1346 6622 c-3 -6 1 -13 10 -16 23 -9 28 -2 10 13 -8 7 -17 8 -20 3z"/>
<path d="M2022 6575 c0 -32 4 -45 14 -45 8 0 14 8 14 18 0 11 9 27 20 37 24
22 17 35 -20 35 -27 0 -28 -2 -28 -45z"/>
<path d="M1221 6593 c0 -12 -5 -25 -11 -28 -5 -3 -10 -11 -10 -18 0 -7 6 -5
16 5 9 9 14 26 11 39 -4 23 -4 23 -6 2z"/>
<path d="M1133 6562 c-24 -18 -21 -30 14 -49 30 -17 38 -16 24 1 -7 8 -9 25
-5 40 7 30 -2 32 -33 8z"/>
<path d="M1495 6568 c-3 -9 -8 -25 -10 -35 -1 -10 -7 -17 -13 -16 -5 1 -8 -7
-5 -18 5 -18 9 -15 25 21 11 23 17 47 15 53 -3 8 -7 6 -12 -5z"/>
<path d="M2140 6566 c0 -9 5 -16 10 -16 6 0 10 4 10 9 0 6 -4 13 -10 16 -5 3
-10 -1 -10 -9z"/>
<path d="M2170 6549 c0 -5 5 -7 10 -4 6 3 10 8 10 11 0 2 -4 4 -10 4 -5 0 -10
-5 -10 -11z"/>
<path d="M2198 6538 c-1 -13 -2 -30 -3 -38 -1 -8 -7 -25 -13 -37 -8 -15 -9
-23 -2 -23 5 0 10 4 10 9 0 4 12 25 26 46 26 39 26 65 -1 65 -8 0 -16 -10 -17
-22z"/>
<path d="M2112 6528 c-14 -14 -16 -28 -3 -28 9 0 24 30 18 36 -2 2 -9 -2 -15
-8z"/>
<path d="M1910 6516 c0 -8 -3 -23 -7 -33 -5 -16 -4 -16 14 2 11 11 18 26 15
33 -6 17 -22 15 -22 -2z"/>
<path d="M1350 6511 c0 -6 4 -13 10 -16 6 -3 7 1 4 9 -7 18 -14 21 -14 7z"/>
<path d="M2365 6493 c0 -13 6 -23 14 -23 8 0 11 6 7 15 -3 8 -1 15 4 15 6 0
10 4 10 9 0 6 -8 9 -17 8 -12 0 -18 -9 -18 -24z"/>
<path d="M2290 6492 c0 -6 -7 -18 -16 -26 -8 -9 -11 -16 -5 -16 13 0 35 39 27
48 -3 3 -6 0 -6 -6z"/>
<path d="M1568 6471 c-9 -11 -14 -22 -11 -25 4 -3 0 -6 -8 -6 -10 -1 -10 -3 3
-10 10 -6 14 -18 11 -30 -5 -19 -2 -21 37 -24 8 -1 16 -11 18 -23 4 -30 20
-29 32 2 5 14 17 25 27 25 12 0 14 3 6 11 -7 7 -8 22 -2 43 l9 31 -23 -28
c-12 -15 -29 -29 -37 -30 -8 -2 -21 -6 -28 -11 -7 -4 -16 -5 -19 -2 -4 3 0 6
7 6 9 0 8 6 -5 20 -17 18 -17 21 -1 45 19 29 8 34 -16 6z"/>
<path d="M1345 6472 c-6 -4 -10 -18 -10 -32 0 -22 4 -25 30 -22 39 5 41 7 21
37 -17 26 -24 29 -41 17z"/>
<path d="M1998 6473 c7 -3 16 -2 19 1 4 3 -2 6 -13 5 -11 0 -14 -3 -6 -6z"/>
<path d="M2570 6460 c0 -5 5 -10 10 -10 6 0 10 5 10 10 0 6 -4 10 -10 10 -5 0
-10 -4 -10 -10z"/>
<path d="M1981 6442 c-7 -13 -11 -26 -8 -28 8 -8 29 25 25 38 -3 8 -9 4 -17
-10z"/>
<path d="M2070 6431 c-14 -26 -13 -38 2 -23 11 11 20 42 12 42 -2 0 -8 -9 -14
-19z"/>
<path d="M6531 6441 c-12 -8 -13 -12 -1 -26 10 -13 15 -13 21 -3 20 30 8 46
-20 29z"/>
<path d="M6701 6424 c0 -11 3 -14 6 -6 3 7 2 16 -1 19 -3 4 -6 -2 -5 -13z"/>
<path d="M2155 6401 c-8 -27 -2 -36 13 -18 6 7 7 18 3 26 -7 10 -10 8 -16 -8z"/>
<path d="M2251 6404 c0 -11 3 -14 6 -6 3 7 2 16 -1 19 -3 4 -6 -2 -5 -13z"/>
<path d="M6730 6395 c0 -9 6 -12 15 -9 10 4 13 2 10 -7 -7 -19 28 -40 46 -28
12 8 12 10 -1 19 -8 5 -11 10 -6 10 17 0 -29 29 -46 30 -10 0 -18 -7 -18 -15z"/>
<path d="M2230 6370 c0 -5 5 -10 11 -10 5 0 7 5 4 10 -3 6 -8 10 -11 10 -2 0
-4 -4 -4 -10z"/>
<path d="M2784 6324 c-26 -59 -50 -136 -46 -148 1 -4 -3 -16 -9 -25 -7 -9 9 5
35 32 26 26 52 47 59 47 8 0 8 3 2 8 -6 4 -16 19 -24 34 -11 22 -11 30 -2 42
7 8 11 25 9 37 -2 18 -7 13 -24 -27z m6 -104 c0 -4 -6 -10 -14 -13 -10 -4 -12
0 -9 14 5 18 23 18 23 -1z"/>
<path d="M6520 6351 c0 -11 31 -24 39 -16 3 3 -1 10 -9 15 -19 12 -30 12 -30
1z"/>
<path d="M431 6338 c0 -9 -4 -25 -7 -35 -5 -17 -5 -17 6 0 6 10 9 25 7 35 -4
15 -5 15 -6 0z"/>
<path d="M6612 6334 c-33 -14 -43 -34 -17 -34 18 0 19 -14 3 -40 -16 -25 4
-52 24 -32 17 17 31 15 24 -4 -5 -14 -4 -15 9 -4 8 7 15 25 15 41 0 22 5 29
20 29 13 0 18 5 14 14 -3 9 -12 12 -21 9 -9 -4 -14 -2 -10 3 12 21 -28 32 -61
18z"/>
<path d="M1610 6310 c0 -5 5 -10 11 -10 5 0 7 5 4 10 -3 6 -8 10 -11 10 -2 0
-4 -4 -4 -10z"/>
<path d="M5910 6302 c0 -14 25 -44 42 -51 19 -7 19 -9 4 -23 -20 -20 -20 -35
-2 -54 15 -15 48 -20 44 -6 -1 4 3 16 9 27 6 11 11 33 11 48 0 23 -4 28 -20
24 -13 -4 -22 2 -30 19 -8 16 -18 23 -34 22 -13 -1 -24 -4 -24 -6z"/>
<path d="M2456 6273 c-6 -14 -5 -15 5 -6 7 7 10 15 7 18 -3 3 -9 -2 -12 -12z"/>
<path d="M7040 6270 c0 -5 5 -10 11 -10 5 0 7 5 4 10 -3 6 -8 10 -11 10 -2 0
-4 -4 -4 -10z"/>
<path d="M5899 6263 c-1 -5 -1 -11 0 -15 0 -5 -4 -8 -11 -8 -9 0 -9 -3 0 -12
10 -9 16 -8 29 5 16 16 16 17 0 17 -10 0 -15 5 -12 10 3 6 4 10 1 10 -3 0 -7
-3 -7 -7z"/>
<path d="M2439 6248 c-4 -15 -6 -38 -3 -38 2 0 8 9 14 20 7 14 7 20 0 20 -5 0
-10 -1 -11 -2z"/>
<path d="M132 6211 c-28 -23 -28 -35 -2 -21 12 6 30 8 41 5 18 -6 19 -5 7 14
-16 26 -19 26 -46 2z"/>
<path d="M16 6165 c-3 -8 -1 -17 3 -20 5 -3 11 2 15 10 3 8 1 17 -3 20 -5 3
-11 -2 -15 -10z"/>
<path d="M6676 6122 c-2 -4 -1 -14 4 -22 7 -11 9 -9 7 8 -1 24 -3 26 -11 14z"/>
<path d="M365 6099 c6 -30 15 -37 15 -11 0 11 -4 23 -9 27 -6 3 -8 -4 -6 -16z"/>
<path d="M246 6065 c-3 -8 -1 -15 4 -15 13 0 22 18 11 24 -5 3 -11 -1 -15 -9z"/>
<path d="M3436 6073 c-1 -2 -25 -5 -52 -7 -27 -2 -83 -9 -124 -16 -90 -13
-212 -28 -300 -36 -36 -4 -72 -10 -81 -15 -8 -4 -35 -10 -58 -13 -24 -3 -58
-14 -77 -26 -20 -11 -43 -20 -53 -20 -10 0 -24 -7 -31 -15 -7 -8 -18 -15 -25
-15 -6 0 -20 -9 -30 -20 -14 -15 -21 -17 -32 -9 -10 9 -13 7 -13 -9 0 -26 -24
-44 -56 -44 -16 0 -21 -4 -14 -8 9 -5 5 -14 -12 -30 -19 -19 -20 -22 -4 -16
16 5 17 4 7 -8 -7 -8 -20 -12 -28 -9 -11 4 -14 2 -9 -5 4 -7 17 -10 31 -6 l24
6 -17 -40 c-9 -23 -25 -43 -34 -46 -10 -2 -18 -12 -18 -21 0 -18 -38 -54 -58
-55 -19 0 -33 -46 -22 -74 5 -14 26 -40 46 -58 20 -18 67 -63 105 -99 112
-108 229 -168 380 -193 53 -9 70 -26 75 -74 2 -27 0 -41 -6 -37 -13 8 -13 -2
1 -65 6 -27 14 -50 17 -50 4 0 13 -4 20 -9 10 -6 4 -17 -24 -45 -20 -20 -50
-44 -65 -52 -16 -8 -28 -18 -28 -22 6 -37 -4 -58 -31 -70 -16 -8 -30 -19 -30
-26 0 -6 -9 -19 -20 -29 -11 -9 -20 -23 -20 -31 0 -8 -7 -17 -16 -20 -10 -4
-14 -14 -11 -25 3 -13 -7 -30 -29 -52 l-34 -33 16 42 c9 23 21 39 27 35 5 -3
8 0 5 8 -3 8 13 36 34 62 21 27 38 52 38 57 0 17 -45 19 -58 2 -7 -9 -17 -18
-22 -18 -6 -1 -15 -2 -20 -3 -7 -1 -7 -7 0 -20 16 -31 12 -51 -10 -51 -12 0
-24 -10 -30 -22 -8 -22 -9 -21 -10 7 -1 45 -11 75 -25 75 -10 0 -12 -22 -8
-100 3 -55 1 -100 -4 -100 -5 0 -10 8 -11 18 -4 42 -10 57 -21 54 -6 -1 -14 5
-18 14 -3 9 -21 39 -40 66 -18 28 -33 56 -33 63 0 7 -6 18 -14 24 -12 10 -12
3 1 -46 8 -32 18 -62 23 -68 4 -5 17 -39 29 -74 25 -72 22 -145 -5 -134 -12 4
-14 0 -8 -21 3 -15 2 -26 -4 -26 -5 0 -13 11 -16 25 -4 14 -11 23 -16 20 -6
-3 -10 -1 -10 4 0 6 -7 11 -15 11 -8 0 -15 4 -15 9 0 5 -27 11 -60 13 -48 3
-66 10 -88 31 -15 15 -33 27 -38 27 -6 0 -49 25 -95 55 -46 30 -88 55 -92 55
-18 0 6 -20 75 -61 104 -63 189 -123 215 -153 13 -14 27 -26 33 -26 5 0 10 -5
10 -11 0 -5 -3 -8 -7 -6 -5 3 -8 -11 -8 -31 1 -21 5 -35 10 -32 6 3 9 13 8 22
-2 14 7 11 42 -14 45 -32 55 -49 15 -28 -12 6 -23 10 -24 8 -1 -2 -7 -15 -14
-30 -10 -25 -18 -28 -59 -30 -81 -3 -107 2 -130 24 -27 25 -24 29 25 45 l37
11 -49 -3 c-49 -3 -50 -3 -110 60 -56 58 -118 105 -139 105 -5 0 9 -15 31 -34
68 -56 162 -168 162 -192 0 -4 10 -18 22 -31 12 -13 19 -23 15 -23 -3 0 -19
14 -36 32 -26 28 -32 30 -46 18 -15 -12 -18 -12 -26 3 -8 13 -15 14 -35 7 -23
-9 -25 -8 -19 10 8 26 -19 28 -35 3 -8 -14 -9 -12 -4 11 6 27 5 28 -19 23 -17
-5 -27 -2 -31 8 -3 8 -12 12 -21 9 -8 -3 -15 -1 -15 5 0 6 -11 11 -25 11 -14
0 -25 4 -25 8 0 4 -12 9 -26 10 -15 1 -32 6 -39 12 -12 10 -141 60 -153 60
-12 -1 142 -79 158 -80 12 0 187 -105 200 -120 12 -13 87 -67 113 -80 31 -15
102 -89 94 -97 -3 -3 -14 -2 -25 1 -14 5 -18 13 -15 26 6 22 -12 28 -21 8 -3
-9 -13 -4 -28 15 -28 32 -38 35 -31 7 7 -26 -21 -27 -39 -2 -7 10 -19 22 -26
26 -13 8 -81 -13 -83 -26 -1 -4 -2 -12 -3 -18 0 -5 -7 -15 -14 -22 -6 -6 -12
-18 -12 -26 0 -27 -22 -6 -36 33 -7 22 -21 45 -31 52 -15 11 -19 10 -32 -12
-11 -18 -24 -25 -45 -25 -16 0 -37 -7 -46 -15 -9 -8 -27 -16 -41 -17 -23 -3
-24 0 -21 40 3 42 3 42 -22 30 -14 -6 -26 -14 -26 -18 0 -3 -16 -23 -35 -43
-19 -20 -32 -37 -29 -37 4 0 1 -6 -5 -13 -6 -8 -9 -16 -6 -19 3 -3 -2 -11 -12
-19 -11 -9 -14 -10 -9 -1 4 7 1 12 -9 12 -13 0 -16 7 -12 33 19 119 19 127 8
127 -6 0 -11 -9 -11 -20 0 -11 -3 -19 -8 -18 -4 2 -21 -9 -37 -24 -16 -16 -40
-28 -52 -28 -13 0 -23 -4 -23 -9 0 -6 -8 -10 -17 -10 -10 0 -44 -2 -76 -3 -54
-3 -72 4 -44 16 6 3 1 3 -12 0 -19 -5 -23 -3 -18 9 3 9 0 21 -8 27 -28 23 1
174 33 168 12 -2 23 12 39 51 35 87 89 134 118 104 16 -15 17 -14 14 18 -2 19
0 49 5 66 7 29 10 32 34 27 15 -4 31 -11 36 -15 6 -5 16 -9 24 -9 8 0 36 -16
62 -35 51 -37 73 -44 64 -20 -4 8 -12 15 -20 15 -8 0 -14 5 -14 10 0 6 -9 10
-19 10 -11 0 -21 4 -23 8 -1 4 -28 17 -58 29 -49 18 -56 24 -61 54 -4 25 -8
30 -13 18 -4 -9 -6 -22 -4 -30 2 -9 -8 -15 -29 -17 -17 -2 -37 -10 -43 -18 -7
-8 -9 -14 -6 -14 4 0 -4 -15 -18 -32 -23 -31 -26 -37 -26 -56 0 -5 -12 -14
-26 -21 l-27 -12 7 51 c5 40 4 50 -8 50 -9 0 -16 -16 -20 -47 -4 -27 -9 -61
-12 -77 -5 -22 -3 -27 7 -21 8 5 2 -4 -13 -20 -16 -15 -28 -31 -28 -35 0 -5
-8 -6 -19 -3 -13 3 -20 -2 -25 -21 -3 -14 -12 -26 -18 -26 -6 0 -9 3 -5 6 9
10 -14 65 -26 61 -12 -4 -37 36 -37 59 0 8 -7 14 -15 14 -8 0 -15 5 -15 11 0
6 -16 10 -38 9 -54 -3 -64 -1 -57 9 3 6 -3 8 -15 6 -11 -2 -19 1 -17 8 1 7 -6
12 -16 12 -10 0 -21 6 -25 12 -5 7 -20 10 -39 7 -24 -4 -39 1 -65 24 -18 15
-47 38 -65 50 l-32 23 -15 -23 c-8 -13 -31 -31 -50 -42 -39 -21 -66 -70 -48
-88 8 -8 6 -19 -9 -40 -20 -27 -22 -28 -35 -11 -13 16 -13 16 -8 1 4 -13 -6
-25 -40 -45 -47 -29 -70 -59 -38 -49 9 3 49 8 89 12 66 6 76 4 117 -20 68 -40
232 -175 306 -253 36 -37 52 -56 35 -42 -62 52 -68 52 -25 1 25 -30 52 -63 60
-75 8 -12 20 -26 27 -30 19 -12 16 -23 -11 -35 -19 -9 -25 -8 -30 4 -9 23 -36
16 -46 -12 -6 -14 -14 -22 -20 -19 -5 3 -12 -6 -16 -21 -5 -19 -9 -23 -16 -12
-5 8 -8 -7 -6 -42 2 -45 -1 -55 -15 -58 -9 -2 -17 1 -17 6 0 6 -7 13 -16 16
-8 3 1 -14 22 -39 20 -25 31 -45 25 -45 -14 0 -9 -39 6 -48 12 -8 29 -62 19
-62 -3 0 -12 13 -21 29 -15 29 -70 65 -85 56 -5 -3 -10 2 -12 12 -3 15 -4 15
-20 -1 -23 -22 -28 -22 -47 7 -9 13 -22 22 -30 19 -8 -2 -11 0 -8 6 4 5 0 15
-8 22 -8 7 -15 10 -15 6 0 -6 -40 17 -68 39 -7 5 -44 40 -83 78 -39 37 -74 67
-78 67 -3 0 2 -7 12 -14 9 -7 17 -17 17 -21 0 -4 34 -50 76 -101 64 -79 74
-96 64 -109 -7 -8 -18 -15 -25 -15 -8 0 -16 -6 -19 -12 -3 -8 -5 -8 -3 2 1 8
-3 15 -8 15 -5 0 -9 -5 -7 -12 5 -21 -46 -26 -84 -8 -19 9 -40 14 -47 11 -9
-3 -9 -5 0 -5 7 -1 10 -8 7 -16 -4 -9 0 -15 7 -15 11 0 11 -3 -1 -10 -13 -8
-12 -10 3 -10 10 0 15 -5 12 -10 -4 -6 -11 -8 -16 -5 -5 4 -9 0 -9 -7 0 -10
-3 -9 -9 2 -6 8 -7 18 -4 24 4 5 -1 7 -10 3 -9 -3 -17 -2 -19 2 -2 5 -19 2
-38 -5 -19 -7 -27 -13 -17 -13 20 -1 22 -12 6 -28 -14 -14 -39 -6 -39 13 0 8
-4 14 -9 14 -5 0 -39 25 -76 55 -37 31 -69 54 -72 52 -2 -3 27 -35 64 -73 94
-95 155 -172 150 -187 -4 -8 -6 -8 -6 2 -2 23 -50 61 -79 61 -15 0 -35 -7 -46
-15 -13 -10 -24 -11 -37 -5 -10 6 -32 10 -49 10 -21 0 -39 9 -55 26 -22 24
-30 24 -26 2 0 -4 -12 -3 -27 2 -24 9 -25 8 -9 -4 9 -7 17 -21 17 -32 0 -17 1
-17 14 2 8 10 18 16 22 11 4 -4 2 -13 -4 -19 -9 -9 -2 -22 33 -55 25 -23 45
-46 45 -51 0 -5 9 -17 20 -27 11 -10 17 -21 15 -25 -3 -4 2 -10 10 -14 8 -3
15 -10 15 -16 0 -14 -130 96 -152 129 -10 14 -18 22 -18 16 0 -5 -7 -1 -15 9
-14 18 -15 17 -15 -23 0 -31 7 -51 25 -73 14 -16 23 -34 19 -39 -3 -5 -1 -9 4
-9 10 0 9 -36 -2 -47 -4 -5 -6 -1 -4 7 2 9 -5 15 -20 16 -21 1 -22 -1 -22
-101 0 -90 3 -106 22 -131 22 -29 22 -29 0 -10 l-21 18 -1 -257 c0 -193 3
-262 12 -273 10 -13 10 -14 0 -8 -9 6 -12 -237 -12 -1198 l0 -1206 3530 0
3530 0 0 69 c0 65 -1 69 -22 69 -13 0 -50 2 -83 6 -33 3 -85 8 -115 11 -30 3
-67 8 -83 11 -19 4 -29 1 -33 -10 -3 -9 -10 -13 -15 -10 -5 3 -7 9 -4 14 3 4
-8 7 -24 6 -19 -1 -27 2 -24 10 2 7 -4 14 -14 17 -14 4 -14 5 5 6 12 0 22 6
22 11 0 6 10 10 23 10 17 0 19 2 8 9 -12 8 -8 11 15 16 16 4 49 13 74 21 63
19 155 32 217 30 57 -1 70 9 26 20 -24 6 -289 0 -458 -11 l-70 -4 65 9 c120
17 134 20 121 33 -6 6 -30 11 -54 10 -23 -1 -31 1 -18 4 19 4 21 7 10 14 -11
7 -11 9 4 9 9 0 17 5 17 11 0 7 -14 9 -40 5 -22 -3 -40 -2 -40 2 0 5 -18 7
-40 5 -22 -2 -40 1 -40 6 0 5 -12 11 -27 13 -26 3 -28 6 -25 43 2 22 8 44 13
50 14 14 11 24 -9 22 -14 -1 -17 -8 -14 -34 5 -41 -10 -43 -25 -3 -6 17 -8 28
-3 25 4 -3 10 2 13 9 4 10 -2 16 -16 18 -13 2 14 13 63 27 60 18 114 26 185
27 104 3 338 -20 382 -37 14 -5 28 -7 32 -4 12 13 -18 39 -50 43 -18 2 -36 7
-39 12 -3 4 -34 14 -70 20 -36 7 -73 17 -82 22 -11 5 -18 5 -18 -1 0 -10 -18
-10 -35 1 -5 3 -70 5 -143 3 -130 -3 -133 -2 -152 22 -10 13 -20 29 -22 35 -2
5 -13 8 -23 5 -19 -5 -19 -5 2 -12 13 -4 20 -11 17 -16 -3 -5 -19 2 -36 16
-18 16 -39 24 -50 22 -10 -3 -18 -2 -18 2 0 5 -10 13 -22 19 -20 10 -19 10 12
6 l35 -5 -30 15 c-16 8 -26 15 -21 15 5 1 3 7 -3 15 -10 12 -9 13 7 9 11 -2
23 0 27 7 9 15 -33 60 -57 60 -11 0 -16 4 -13 10 3 5 -2 10 -11 10 -16 0 -16
1 2 15 19 14 19 14 -1 16 -11 1 -23 1 -26 1 -3 -1 -4 11 -1 26 5 25 4 26 -13
12 -17 -14 -18 -13 -11 12 4 17 2 28 -4 28 -5 0 -10 7 -10 15 0 8 -4 15 -10
15 -5 0 -10 11 -10 24 0 13 -7 29 -15 36 -12 10 -15 10 -15 0 0 -8 -3 -10 -6
-7 -4 4 -1 14 6 23 11 13 11 17 1 24 -8 4 -10 13 -6 20 4 7 -2 14 -16 17 -48
13 10 18 123 11 64 -4 133 -2 158 3 122 26 155 37 155 50 0 23 -52 22 -154 -2
-100 -24 -204 -31 -209 -14 -3 12 16 15 123 21 130 8 116 24 -20 24 -159 0
-154 0 -160 11 -4 5 -15 9 -26 9 -11 0 -22 7 -25 15 -5 12 -9 13 -20 4 -12
-10 -13 -9 -8 5 3 9 10 16 15 16 5 0 9 14 9 31 0 16 -4 28 -9 24 -5 -3 -18 5
-28 17 -13 16 -31 24 -63 26 -51 4 -83 18 -78 34 2 6 19 19 38 29 27 15 30 20
17 25 -9 3 -14 10 -11 15 3 5 -4 9 -15 9 -41 0 -29 18 17 24 105 15 112 17 99
31 -9 9 -14 10 -19 1 -5 -6 -8 -7 -8 -1 0 10 -14 14 -58 17 -6 1 -10 4 -7 6 3
3 0 11 -6 18 -8 9 -5 11 13 8 l23 -5 -23 11 c-19 8 -23 17 -21 43 2 18 0 38
-4 44 -4 7 0 16 10 22 17 9 17 11 -2 25 -11 8 -29 13 -40 10 -19 -6 -19 -5 -2
8 17 13 17 14 -9 13 -24 0 -29 4 -31 27 -1 22 3 28 17 28 10 0 23 8 28 17 8
13 33 18 133 23 68 4 113 8 100 8 -41 3 -101 25 -95 34 3 5 -4 12 -16 15 -16
4 -20 11 -16 28 7 29 -11 34 -91 28 -32 -3 -56 -3 -53 0 14 14 361 38 457 32
90 -6 106 -5 145 13 23 11 51 23 61 26 9 3 17 10 17 16 0 10 -19 13 -74 12
-16 -1 -39 4 -50 11 -26 14 -136 17 -153 4 -9 -6 -13 -6 -13 1 0 6 -7 9 -15 6
-8 -4 -13 -10 -10 -14 3 -5 -4 -6 -15 -3 -11 3 -20 1 -20 -3 0 -5 -37 -9 -82
-9 -99 -1 -149 -6 -164 -17 -6 -4 -11 -2 -11 7 0 18 8 21 180 55 78 15 143 33
145 39 2 6 8 9 13 5 5 -3 9 0 9 5 0 6 10 11 22 11 17 0 19 3 10 12 -14 14 -62
13 -110 -3 -53 -18 -224 -18 -217 -1 3 7 1 10 -4 7 -5 -3 -12 -1 -15 3 -3 5
-20 8 -37 7 -32 -2 -77 29 -59 40 4 3 11 -1 13 -7 3 -8 6 -6 6 4 1 20 50 68
68 68 7 0 13 4 13 8 0 8 84 74 130 102 38 24 97 23 169 0 70 -23 155 -64 185
-89 11 -9 16 -11 12 -4 -15 26 -128 103 -151 103 -13 0 -26 4 -29 8 -5 9 -52
15 -120 16 -32 0 -36 2 -21 10 10 6 30 21 46 34 l29 23 82 -41 c45 -22 88 -46
95 -52 19 -16 26 -4 18 33 -5 23 -10 28 -16 18 -6 -10 -9 -11 -9 -1 0 6 -10
12 -22 12 -13 0 -50 9 -83 20 l-60 19 40 1 c37 1 39 2 21 15 -18 14 -17 15 25
16 44 1 49 1 82 -8 13 -4 16 -1 11 13 -14 38 -23 42 -67 32 -50 -11 -235 -125
-294 -181 -36 -35 -147 -117 -157 -117 -2 0 -7 7 -10 16 -3 8 -2 13 3 9 5 -3
16 -2 25 1 12 5 13 10 5 25 -8 15 -6 21 6 25 11 5 14 15 11 36 -3 20 2 34 17
48 l21 20 -22 0 c-41 0 -22 18 44 41 37 13 69 29 71 37 10 24 -6 24 -39 -1
-56 -41 -65 -41 -18 2 46 41 77 50 98 29 9 -9 16 -8 29 5 10 8 43 28 73 44 43
23 56 35 58 56 2 15 -2 27 -8 27 -6 0 -8 -5 -4 -12 4 -7 3 -8 -5 -4 -6 4 -17
3 -24 -2 -15 -13 -96 -42 -117 -42 -8 0 -28 -12 -45 -26 -67 -58 -112 -94
-120 -94 -4 0 -2 7 5 15 6 8 9 19 6 24 -4 5 -1 13 5 16 5 4 8 13 5 21 -3 7 1
17 8 21 12 7 12 10 0 21 -8 8 -14 8 -14 2 0 -5 -8 -29 -18 -53 -10 -23 -27
-67 -36 -97 -27 -84 -109 -262 -130 -284 -10 -10 -17 -13 -14 -5 3 8 -2 20
-10 28 -9 9 -11 23 -7 40 4 14 7 38 7 54 1 15 5 27 11 27 5 0 5 5 -2 13 -8 10
-7 17 2 26 9 10 9 12 -2 9 -24 -5 -24 30 -2 68 12 19 21 42 21 50 0 8 5 14 10
14 6 0 10 5 10 11 0 6 8 23 18 37 24 35 34 62 22 62 -10 0 -24 -14 -70 -71
-19 -24 -47 -56 -62 -72 -16 -16 -28 -30 -28 -32 0 -1 -13 -17 -30 -35 -21
-23 -35 -30 -50 -25 -15 5 -20 2 -20 -12 0 -10 -5 -25 -10 -33 -6 -10 -9 23
-6 98 1 62 0 114 -3 116 -3 2 -19 6 -34 10 -20 5 -27 3 -22 -4 4 -7 -7 -4 -24
4 -17 9 -31 19 -31 22 0 2 10 -1 23 -7 22 -12 22 -12 3 10 -16 17 -22 19 -34
8 -13 -9 -14 -9 -8 1 4 7 2 12 -6 12 -12 0 -56 60 -50 68 8 10 0 14 -10 4 -13
-13 -29 -16 -27 -4 3 18 -2 32 -11 32 -12 0 -1 -53 12 -58 13 -6 -1 -22 -19
-22 -8 0 -13 6 -10 13 3 8 1 20 -4 28 -7 12 -9 12 -9 -1 -1 -11 -6 -8 -20 9
-11 13 -20 19 -20 15 -1 -5 -8 5 -18 21 -9 17 -17 51 -17 76 -1 50 9 54 48 21
9 -8 20 -13 23 -10 3 3 -6 15 -20 26 l-26 20 43 6 c68 10 337 -22 415 -49 26
-9 74 -15 123 -14 69 1 78 3 67 16 -9 11 -25 14 -55 10 -33 -3 -46 -1 -53 12
-8 14 -11 14 -20 1 -8 -13 -10 -13 -10 1 0 22 -26 44 -35 29 -4 -6 -1 -18 6
-26 6 -8 9 -18 5 -21 -4 -4 -11 -2 -15 6 -5 7 -12 13 -17 13 -19 1 -40 12 -52
29 -13 18 -79 45 -89 36 -3 -3 -17 7 -32 22 -32 34 -62 51 -93 51 -16 0 -19 3
-10 9 10 6 10 10 -2 20 -10 8 -16 9 -21 1 -3 -5 -13 -10 -22 -10 -13 0 -13 3
-3 15 11 13 10 14 -4 9 -9 -3 -16 -13 -16 -22 0 -21 -13 -7 -17 19 -2 11 4 22
12 25 8 4 12 10 9 16 -3 5 -12 7 -19 4 -7 -2 -16 2 -19 10 -9 24 -7 31 4 14 6
-9 10 -10 10 -3 0 19 -12 43 -19 38 -4 -2 -8 1 -9 8 -1 7 -4 24 -8 39 -14 58
62 86 143 53 20 -8 37 -14 38 -13 8 12 22 68 16 63 -5 -2 -12 11 -15 30 -8 42
-21 45 -31 8 -7 -28 -7 -28 -18 -5 -11 24 -27 28 -44 11 -7 -7 -19 4 -42 40
-17 28 -38 51 -46 51 -23 0 -19 -9 20 -46 19 -18 31 -35 26 -38 -5 -3 -12 1
-15 10 -3 9 -16 15 -28 13 -31 -2 -89 21 -82 33 3 5 12 7 20 4 7 -3 11 0 9 7
-7 20 22 50 44 44 17 -4 18 -2 8 14 -14 23 -23 24 -31 4 -3 -9 -19 -15 -41
-15 -21 0 -35 -5 -35 -12 0 -10 -2 -10 -8 -1 -6 9 -17 10 -42 3 -18 -5 -36 -7
-39 -5 -2 3 1 5 7 5 6 0 9 7 6 15 -4 8 -10 12 -16 9 -6 -4 -7 8 -3 29 5 23 3
37 -6 42 -7 5 -10 4 -6 -2 3 -5 0 -10 -8 -10 -7 0 -12 8 -10 19 3 14 -3 18
-23 19 -15 1 -31 0 -37 -1 -5 -1 -7 2 -2 6 4 4 -5 13 -20 19 -25 10 -25 12 -9
25 48 41 116 107 116 113 0 8 45 60 94 108 15 16 23 29 17 29 -12 0 -66 100
-54 100 10 1 -28 30 -39 30 -4 0 -5 -15 -2 -32 6 -32 6 -32 -9 -13 -16 19 -16
19 -17 -13 0 -24 10 -45 35 -75 l35 -41 -31 -13 c-17 -7 -39 -13 -48 -13 -10
0 -25 -20 -39 -50 -13 -28 -30 -50 -37 -50 -18 0 -20 20 -2 21 6 0 3 4 -8 8
-11 5 -24 3 -31 -3 -6 -6 -23 -20 -39 -31 -15 -11 -36 -28 -46 -39 -11 -11
-26 -17 -38 -13 -12 3 -19 2 -16 -3 3 -4 -2 -11 -11 -14 -33 -13 -37 -5 -9 24
22 23 34 28 53 23 17 -4 23 -2 18 5 -4 7 -2 10 7 6 11 -4 13 11 11 78 -2 46
-4 94 -6 108 -4 36 28 39 44 4 l13 -27 5 24 c4 18 13 25 39 27 24 3 31 7 27
18 -5 12 -1 14 17 9 19 -6 18 -3 -10 27 -18 19 -33 37 -33 41 0 15 22 6 47
-19 30 -30 45 -23 16 9 -11 12 -23 28 -27 35 -12 20 12 14 34 -10 l20 -22 -17
44 c-10 24 -36 61 -58 83 -22 22 -39 44 -38 48 4 12 -88 95 -99 91 -5 -1 -7 2
-3 8 3 5 0 10 -8 10 -8 0 -26 -28 -41 -62 -15 -35 -32 -72 -38 -83 -6 -11 -24
-50 -39 -88 l-28 -69 35 -36 c20 -20 40 -36 44 -35 5 1 10 -22 12 -52 2 -39
-1 -55 -9 -55 -7 0 -10 7 -7 15 4 8 2 15 -3 15 -5 0 -15 16 -23 35 -9 24 -17
32 -24 25 -16 -16 -28 -12 -21 9 4 12 0 21 -11 25 -11 4 -14 13 -11 27 7 25
-26 40 -65 29 -14 -5 -29 -6 -32 -3 -3 4 -35 -2 -71 -12 -36 -9 -72 -15 -80
-11 -9 3 -15 0 -15 -9 0 -8 -9 -15 -19 -15 -11 0 -21 -6 -24 -12 -3 -10 -8
-10 -21 1 -13 11 -20 11 -28 3 -7 -7 -27 -12 -46 -12 -29 0 -34 -3 -29 -20 6
-24 1 -25 -20 -4 -9 8 -22 13 -29 10 -8 -3 -13 0 -11 6 1 7 -10 13 -25 13 -15
1 -26 -3 -25 -8 1 -5 -4 -12 -10 -14 -7 -3 -13 0 -13 6 0 6 -15 4 -37 -5 -20
-9 -44 -13 -55 -11 -10 3 -18 0 -18 -7 0 -6 -10 -12 -22 -13 -11 -1 -24 -6
-27 -10 -14 -18 -111 -63 -111 -51 0 9 -3 10 -8 2 -4 -6 -29 -14 -57 -17 -34
-5 -43 -4 -30 2 19 9 15 11 -17 15 -7 0 -14 11 -16 24 -2 12 -7 22 -11 22 -14
0 -21 83 -8 98 13 16 19 43 20 99 1 23 5 37 9 30 6 -9 8 -9 8 1 0 6 7 12 17
12 15 0 14 2 -2 20 -17 19 -17 20 9 30 15 5 34 10 43 10 10 0 13 6 9 16 -4 9
-2 13 5 8 8 -4 9 3 4 25 -4 20 -3 31 4 31 6 0 11 -4 11 -10 0 -5 4 -10 10 -10
5 0 9 11 8 25 -2 16 -6 21 -12 15 -17 -17 -25 -11 -20 18 3 15 11 32 19 38 8
6 15 15 15 20 0 5 14 23 30 41 22 23 41 33 72 37 24 2 72 8 108 13 75 10 100
7 100 -11 0 -15 46 -10 56 5 7 12 124 11 124 -1 0 -5 7 -10 15 -10 9 0 15 10
15 26 0 18 -4 23 -12 17 -16 -10 -32 -11 -38 -2 -3 4 -42 8 -87 10 -66 3 -84
1 -88 -11 -5 -13 -7 -13 -15 0 -7 10 -10 11 -10 3 0 -7 -12 -13 -27 -13 -38 0
-105 25 -96 35 5 4 0 5 -9 2 -10 -3 -20 -2 -23 3 -4 6 -1 10 6 10 7 0 9 3 6 6
-4 4 -13 1 -22 -6 -9 -7 -15 -8 -15 -2 0 6 -8 9 -17 7 -10 -1 -30 6 -44 16
-14 10 -29 16 -33 12 -3 -3 -6 3 -6 15 0 20 -10 27 -33 23 -5 -1 -7 4 -5 11 3
7 10 13 16 13 6 0 18 9 26 20 30 41 -8 104 -89 144 -25 12 -46 29 -46 37 -2
24 -4 28 -23 68 -20 42 -28 126 -12 126 5 0 7 3 4 6 -3 3 3 29 14 57 12 29 21
63 22 77 1 14 5 31 9 38 5 6 6 12 3 12 -3 0 -1 12 5 26 5 15 12 43 15 63 3 20
9 38 13 41 4 3 8 21 9 40 2 19 7 36 11 38 5 2 6 13 3 24 -4 16 -2 20 10 15 13
-4 15 0 12 23 -3 17 1 34 11 43 8 9 15 23 15 31 0 9 7 16 16 16 8 0 13 4 10 8
-3 5 2 21 9 36 8 16 12 32 9 37 -3 5 1 6 9 3 9 -3 16 3 20 15 4 15 0 21 -11
22 -10 0 -48 7 -87 15 l-70 14 130 -5 131 -5 17 33 c31 55 115 137 141 137 6
0 5 -4 -3 -9 -8 -5 -16 -20 -18 -32 -2 -13 -9 -27 -16 -31 -9 -6 -9 -8 1 -8 7
0 10 -4 7 -10 -11 -18 -14 -51 -4 -45 5 4 9 -1 9 -9 0 -8 -4 -17 -10 -21 -14
-9 -1 -35 15 -29 8 3 11 12 8 20 -3 9 1 14 11 14 20 0 32 -26 19 -43 -17 -22
-24 -49 -10 -40 6 4 19 8 27 10 10 1 9 -3 -4 -13 -11 -8 -25 -14 -31 -14 -6 0
-11 -9 -11 -20 0 -11 3 -20 7 -20 3 0 9 -16 12 -35 3 -19 11 -40 17 -47 6 -7
16 -20 23 -29 7 -9 29 -19 50 -22 32 -5 37 -3 37 14 0 18 6 19 80 16 44 -2 80
0 80 4 0 5 -4 9 -10 9 -5 0 -10 9 -10 20 0 16 7 20 35 22 19 1 43 2 53 2 9 1
22 8 29 16 11 13 12 13 13 0 0 -12 3 -11 11 3 8 13 18 16 42 12 18 -4 59 -2
92 3 45 7 69 6 98 -4 31 -11 37 -11 29 -1 -8 9 -8 17 0 27 8 12 9 12 4 -2 -3
-10 -1 -18 4 -18 16 0 11 40 -6 58 -12 11 -13 17 -5 20 20 7 -60 71 -134 107
-39 19 -92 38 -118 41 -25 4 -44 10 -42 15 7 10 -206 8 -225 -3 -10 -6 -7 -7
10 -3 24 6 24 6 5 -10 -18 -14 -21 -14 -33 2 -13 17 -14 16 -7 -5 7 -24 -7
-43 -39 -55 -16 -6 -17 -5 -6 8 11 13 10 19 -6 36 -16 17 -16 22 -4 30 13 8
13 10 0 18 -8 5 -18 7 -22 5 -4 -3 -5 2 -1 12 5 13 16 15 57 12 28 -3 45 -3
39 -1 -19 7 -16 23 4 23 9 0 14 2 11 5 -8 8 -98 -15 -124 -30 -13 -9 -26 -10
-35 -4 -10 6 -10 9 -1 9 6 0 12 7 12 16 0 11 6 15 20 11 10 -3 21 0 23 6 2 6
41 12 93 13 54 2 77 0 59 -4 l-30 -8 28 -6 c19 -4 30 -1 36 10 18 31 441 1
544 -40 49 -19 66 -56 69 -151 l3 -85 50 -6 c28 -3 74 -2 103 2 l52 9 -6 -46
c-4 -32 -1 -59 10 -85 9 -21 18 -59 21 -84 3 -26 9 -58 12 -72 3 -14 6 -34 5
-45 -1 -14 2 -12 9 8 6 15 14 27 19 27 4 0 11 16 14 35 4 19 12 37 18 41 7 4
8 3 4 -4 -4 -7 -4 -29 0 -49 4 -21 9 -32 11 -25 7 19 23 14 23 -7 0 -10 6 -21
14 -24 15 -6 28 -57 15 -57 -5 0 -9 -11 -9 -24 0 -17 -9 -27 -30 -36 -16 -7
-30 -15 -30 -19 0 -4 -13 -15 -30 -24 -16 -10 -34 -26 -40 -37 -8 -15 -7 -17
11 -13 11 3 23 12 26 19 3 8 11 14 19 14 8 0 14 7 14 16 0 13 5 15 23 8 12 -4
41 -8 64 -8 36 0 47 4 69 32 30 35 45 34 38 -4 -3 -15 2 -31 11 -40 25 -25 -8
-98 -79 -179 -20 -22 -36 -43 -37 -47 -1 -5 -3 -12 -4 -18 -1 -5 -3 -17 -4
-26 -1 -10 -7 -14 -16 -10 -8 3 -15 0 -16 -7 0 -7 -4 -3 -9 8 -8 19 -9 19 -9
-2 -1 -19 -73 -93 -92 -93 -4 0 -9 -13 -11 -30 -4 -26 -1 -30 19 -30 14 0 21
4 18 10 -4 6 -10 8 -15 5 -14 -9 -8 30 7 44 10 9 13 7 13 -13 0 -14 4 -27 8
-30 16 -9 52 6 52 22 0 12 3 13 12 4 14 -14 29 -15 60 -3 13 5 28 10 33 11 23
5 45 22 45 35 0 7 5 17 12 21 8 5 9 2 5 -9 -7 -18 3 -21 40 -11 13 4 21 10 18
14 -3 5 -1 11 5 15 5 3 10 1 10 -5 0 -7 6 -10 13 -7 6 2 12 10 12 18 0 8 8 13
18 11 10 -2 17 3 17 13 0 8 3 14 8 13 19 -4 64 25 81 53 12 20 21 26 24 17 8
-20 107 89 100 110 -5 11 -2 14 10 9 13 -5 15 1 14 31 -1 25 2 36 11 34 7 -1
12 8 12 21 0 13 6 29 13 36 10 11 9 13 -3 9 -11 -4 -15 2 -15 23 0 16 3 29 8
29 12 0 8 36 -7 66 -8 15 -13 31 -10 36 8 13 -16 39 -29 31 -6 -4 -8 0 -4 10
4 11 1 15 -13 12 -11 -2 -19 -1 -18 3 1 4 -3 16 -7 26 -8 17 -9 18 -14 3 -5
-14 -14 -9 -52 26 -47 43 -162 176 -141 163 8 -4 10 -2 6 7 -3 8 -16 19 -30
25 -13 7 -24 16 -24 22 0 25 -74 118 -110 139 -22 12 -40 28 -40 36 0 7 -17
15 -43 19 -23 4 -55 13 -71 21 -16 8 -42 15 -60 15 -17 0 -45 9 -63 19 -17 11
-49 22 -71 24 -22 2 -57 14 -77 26 -21 12 -44 20 -51 17 -7 -3 -14 0 -16 6 -2
6 -15 12 -30 13 -14 2 -36 9 -49 15 -12 7 -48 16 -78 21 -31 4 -76 13 -101 19
-25 6 -60 11 -79 10 -18 0 -38 4 -45 9 -14 12 -63 14 -316 12 -107 -1 -202 -6
-210 -11 -13 -8 -12 -10 3 -10 10 0 16 -4 12 -9 -3 -5 0 -13 6 -17 8 -4 4 -11
-12 -20 -23 -13 -22 -13 21 -15 31 -1 38 -3 23 -7 -30 -9 -14 -34 21 -34 14 0
26 -6 26 -12 0 -7 3 -7 8 -1 4 6 25 11 47 11 22 1 45 3 52 5 6 2 13 0 15 -6 1
-5 -12 -11 -31 -12 -102 -8 -153 -40 -227 -138 -54 -71 -60 -76 -87 -71 -16 3
-35 6 -41 6 -8 0 -11 28 -11 84 0 47 -3 82 -7 80 -4 -3 -8 5 -8 18 0 13 -3 33
-6 46 -5 16 -2 22 10 22 11 0 16 9 16 29 0 22 7 32 33 45 23 13 25 16 9 13
-14 -3 -25 0 -28 8 -7 16 -70 11 -93 -8 -8 -7 -12 -7 -9 -2 4 7 -11 11 -40 12
-152 4 -354 8 -356 6z m1304 -142 c0 -8 -90 -3 -99 5 -2 2 19 4 47 4 29 0 52
-4 52 -9z m47 -7 c-3 -3 -12 -4 -19 -1 -8 3 -5 6 6 6 11 1 17 -2 13 -5z m285
-145 c6 -22 22 -49 35 -59 21 -17 34 -48 14 -36 -5 3 -8 -5 -7 -18 0 -13 4
-22 7 -20 4 2 9 -2 12 -9 3 -9 -7 -12 -32 -12 l-37 0 -3 74 c-1 41 -7 83 -12
92 -12 23 -12 42 1 34 5 -3 15 -24 22 -46z m-2392 31 c0 -5 -4 -10 -10 -10 -5
0 -10 5 -10 10 0 6 5 10 10 10 6 0 10 -4 10 -10z m1527 4 c-3 -3 -12 -4 -19
-1 -8 3 -5 6 6 6 11 1 17 -2 13 -5z m37 -18 c-3 -7 2 -20 10 -28 11 -11 12
-18 3 -27 -20 -20 -27 -12 -27 29 0 22 4 40 10 40 5 0 7 -6 4 -14z m-814 -6
c0 -5 -4 -10 -10 -10 -5 0 -10 5 -10 10 0 6 5 10 10 10 6 0 10 -4 10 -10z m41
-5 c1 -17 -18 -17 -25 0 -4 11 -1 15 10 13 8 -2 15 -7 15 -13z m-781 -16 c10
-5 -3 -8 -37 -9 -39 0 -53 4 -53 14 0 10 10 13 38 9 20 -3 44 -9 52 -14z
m2066 -54 c49 -29 73 -54 53 -56 -29 -3 -44 3 -62 24 -10 12 -22 22 -25 23
-24 4 -91 38 -87 45 7 11 73 -9 121 -36z m-110 -46 c8 -13 -14 -20 -41 -13
-14 3 -25 10 -25 15 0 11 59 8 66 -2z m184 -29 c0 -5 -7 -10 -15 -10 -8 0 -15
5 -15 10 0 6 7 10 15 10 8 0 15 -4 15 -10z m-95 -13 c17 -13 16 -15 -15 -25
-18 -7 -34 -12 -36 -12 -1 0 3 11 9 25 14 29 17 30 42 12z m110 -25 c-3 -3
-11 0 -18 7 -9 10 -8 11 6 5 10 -3 15 -9 12 -12z m-2035 -192 c12 -23 12 -24
-3 -11 -10 7 -17 20 -17 29 0 18 3 16 20 -18z m167 -412 c-3 -7 -5 -2 -5 12 0
14 2 19 5 13 2 -7 2 -19 0 -25z m2860 -50 c-3 -8 -6 -5 -6 6 -1 11 2 17 5 13
3 -3 4 -12 1 -19z m-249 -163 c-3 -3 -9 2 -12 12 -6 14 -5 15 5 6 7 -7 10 -15
7 -18z m-1840 -37 c17 -17 15 -39 -5 -54 -12 -9 -14 -16 -7 -21 6 -5 11 -15
11 -24 0 -13 -5 -14 -24 -5 -20 9 -23 17 -20 51 4 60 20 78 45 53z m1726 -2
c-10 -8 -21 -12 -24 -10 -5 6 21 24 34 24 6 0 1 -6 -10 -14z m-2752 -297 c-18
-17 -32 -35 -32 -40 0 -5 -7 -9 -15 -9 -8 0 -15 4 -15 9 0 5 -10 7 -22 5 -13
-3 6 11 42 30 36 19 67 35 69 36 3 0 -10 -14 -27 -31z m-1991 5 c12 -15 11
-16 -6 -11 -24 8 -53 -7 -36 -17 6 -4 24 -8 40 -8 25 -1 32 -8 51 -52 13 -28
38 -83 56 -123 19 -40 34 -88 34 -107 0 -25 9 -47 31 -73 18 -21 -10 4 -60 54
-51 51 -89 97 -86 103 3 5 -1 10 -9 10 -9 0 -16 4 -16 8 0 5 -18 21 -40 38
-28 20 -38 34 -34 47 3 10 2 17 -3 15 -16 -4 -73 14 -68 22 8 13 -6 41 -17 34
-6 -4 -2 5 7 20 10 14 26 26 36 26 11 0 19 4 19 9 0 23 83 26 101 5z m1914 6
c3 -5 2 -10 -4 -10 -5 0 -13 5 -16 10 -3 6 -2 10 4 10 5 0 13 -4 16 -10z
m1120 -89 c3 -5 2 -12 -3 -15 -5 -3 -9 1 -9 9 0 17 3 19 12 6z m-1257 -129 c2
-7 -5 -12 -15 -12 -11 0 -20 6 -20 14 0 16 29 14 35 -2z m-341 -47 c-23 -22
-33 -18 -12 5 10 11 20 18 23 16 2 -3 -3 -12 -11 -21z m190 19 c-3 -3 -12 -4
-19 -1 -8 3 -5 6 6 6 11 1 17 -2 13 -5z m-22 -33 c-6 -5 -25 10 -25 20 0 5 6
4 14 -3 8 -7 12 -15 11 -17z m-1151 -53 c-10 -18 -19 -27 -22 -20 -4 14 26 67
35 59 2 -3 -3 -20 -13 -39z m41 -58 c3 -5 1 -10 -4 -10 -6 0 -11 5 -11 10 0 6
2 10 4 10 3 0 8 -4 11 -10z m3715 -47 c0 -25 -3 -44 -6 -40 -10 10 -13 87 -3
87 5 0 9 -21 9 -47z m-2703 -15 c-3 -8 -6 -5 -6 6 -1 11 2 17 5 13 3 -3 4 -12
1 -19z m2250 -58 c1 -11 -2 -20 -8 -20 -5 0 -9 9 -9 20 0 11 4 20 8 20 4 0 8
-9 9 -20z m379 1 c-7 -11 -46 -21 -46 -12 0 13 13 21 32 21 11 0 17 -4 14 -9z
m-666 -31 c8 -5 12 -11 10 -14 -3 -2 -14 2 -24 10 -22 15 -10 19 14 4z m680
-47 l-1 -58 -14 34 c-16 36 -19 64 -8 74 16 17 23 3 23 -50z m-730 17 c0 -5
-2 -10 -4 -10 -3 0 -8 5 -11 10 -3 6 -1 10 4 10 6 0 11 -4 11 -10z m730 -106
c0 -18 -19 -18 -26 0 -4 11 -13 6 -34 -17 l-29 -32 17 37 c9 20 24 39 32 41
19 4 40 -11 40 -29z m-3599 -57 c-10 -9 -11 -8 -5 6 3 10 9 15 12 12 3 -3 0
-11 -7 -18z m3689 -84 c0 -5 -11 -13 -25 -20 -28 -13 -34 1 -7 16 21 12 32 14
32 4z m247 -225 c-3 -8 -6 -5 -6 6 -1 11 2 17 5 13 3 -3 4 -12 1 -19z m211
-53 c-3 -3 -9 2 -12 12 -6 14 -5 15 5 6 7 -7 10 -15 7 -18z m-5187 -28 c-6 -6
-14 -7 -18 -2 -5 4 -2 10 5 12 6 3 13 12 13 21 1 14 2 14 6 -2 3 -10 0 -23 -6
-29z m-136 -207 c3 -5 1 -10 -4 -10 -6 0 -11 5 -11 10 0 6 2 10 4 10 3 0 8 -4
11 -10z m5241 -87 c-10 -11 -36 -12 -36 -2 0 5 10 9 22 9 12 0 18 -3 14 -7z
m-146 -118 c0 -8 -4 -15 -9 -15 -5 0 -11 7 -15 15 -3 9 0 15 9 15 8 0 15 -7
15 -15z m-1045 -24 c-3 -6 -11 -11 -16 -11 -5 0 -4 6 3 14 14 16 24 13 13 -3z
m265 -75 c0 -2 -8 -10 -17 -17 -16 -13 -17 -12 -4 4 13 16 21 21 21 13z m1340
-557 c0 -6 -5 -7 -11 -3 -6 3 -15 0 -20 -7 -7 -11 -9 -11 -9 3 0 17 19 29 33
21 4 -2 7 -9 7 -14z m-38 -54 c3 -14 1 -25 -3 -25 -5 0 -9 11 -9 25 0 14 2 25
4 25 2 0 6 -11 8 -25z m-18 -34 c3 -5 -1 -14 -8 -20 -12 -10 -13 -8 -9 8 6 23
9 25 17 12z m236 -80 c0 -5 -7 -12 -16 -15 -14 -5 -15 -4 -4 9 14 17 20 19 20
6z m350 -1295 c0 -2 -7 -7 -16 -10 -8 -3 -12 -2 -9 4 6 10 25 14 25 6z m157
-142 c-3 -3 -12 -4 -19 -1 -8 3 -5 6 6 6 11 1 17 -2 13 -5z"/>
<path d="M4038 6053 c7 -3 16 -2 19 1 4 3 -2 6 -13 5 -11 0 -14 -3 -6 -6z"/>
<path d="M6480 6036 c0 -9 5 -16 10 -16 6 0 10 4 10 9 0 6 -4 13 -10 16 -5 3
-10 -1 -10 -9z"/>
<path d="M6914 5855 c-10 -8 -14 -14 -9 -15 15 0 40 18 34 24 -3 3 -14 -1 -25
-9z"/>
<path d="M4383 5853 c20 -5 23 -19 5 -26 -7 -2 11 -3 40 -3 39 1 51 4 47 14
-3 8 -5 16 -5 18 0 3 -6 2 -12 -2 -18 -11 -48 -12 -54 -2 -3 4 -13 7 -22 7
-15 -1 -15 -2 1 -6z"/>
<path d="M4000 5674 c-13 -4 -15 -16 -10 -64 4 -39 1 -64 -7 -76 -14 -19 -4
-46 27 -76 21 -20 62 -123 62 -156 0 -13 6 -26 13 -28 7 -3 11 -14 8 -25 -3
-11 0 -19 6 -19 7 0 9 5 6 10 -3 6 -4 10 -1 10 3 0 16 -19 30 -43 14 -23 43
-56 65 -72 25 -19 38 -36 35 -48 -2 -11 5 -21 19 -27 l22 -9 -24 0 c-23 -1
-23 -2 -16 -68 4 -41 15 -79 26 -94 10 -15 19 -32 19 -38 0 -6 9 -15 20 -21
11 -6 20 -17 20 -25 0 -9 9 -15 23 -15 18 0 19 -2 7 -10 -13 -8 -13 -10 2 -10
22 0 32 18 19 34 -6 7 -8 16 -4 20 4 4 1 11 -7 16 -12 7 -12 16 -4 49 9 32 8
41 -2 45 -8 3 -18 -3 -24 -12 -11 -16 -11 -15 -6 1 3 10 6 30 6 43 0 15 6 24
15 24 8 0 15 5 15 10 0 9 -15 14 -33 11 -5 -1 -6 3 -3 8 8 13 -25 24 -38 11
-13 -13 -46 -13 -46 1 0 5 4 7 10 4 5 -3 18 -1 29 5 14 7 27 7 45 -2 17 -7 33
-8 47 -2 15 7 50 6 108 -4 48 -7 130 -12 186 -10 121 4 151 19 220 111 55 74
148 262 164 332 7 28 14 58 17 68 3 10 0 17 -9 17 -10 0 -16 -16 -20 -49 -17
-140 -165 -394 -258 -441 -44 -23 -165 -27 -265 -10 -85 16 -204 51 -199 60 3
5 -3 6 -12 4 -34 -9 -125 57 -159 113 -30 51 -86 182 -98 233 -7 24 -6 24 9
-2 9 -16 24 -28 36 -28 16 0 19 -4 14 -21 -5 -15 -4 -19 4 -15 16 10 14 59 -4
82 -22 29 -18 38 10 20 25 -16 32 -12 17 10 -4 7 -18 14 -32 15 -17 3 -25 10
-24 22 2 19 -11 23 -21 7 -8 -13 -25 -13 -25 0 0 5 15 16 33 24 l32 15 -35 -6
c-19 -4 -39 -11 -43 -17 -5 -6 -7 17 -5 52 3 34 4 61 4 61 -1 -1 -8 -3 -16 -5z"/>
<path d="M6950 5616 c0 -9 3 -16 8 -16 10 0 35 -41 28 -47 -3 -3 -13 0 -21 7
-11 9 -19 10 -27 2 -15 -15 1 -35 25 -28 27 7 47 -10 47 -39 0 -32 -11 -38
-34 -16 -13 11 -40 20 -68 23 -47 3 -48 2 -48 -24 0 -17 5 -28 14 -28 8 0 17
-7 20 -16 10 -27 -3 -30 -20 -5 -15 20 -18 21 -33 7 -55 -51 -59 -54 -87 -48
-25 4 -27 3 -16 -10 10 -13 9 -18 -3 -28 -19 -16 -19 -30 0 -30 8 0 22 -11 30
-24 26 -39 50 -39 69 0 10 22 23 34 35 34 30 0 33 -16 11 -52 -26 -43 -26 -43
12 -46 18 -2 35 -7 39 -13 4 -8 14 -7 30 1 16 9 24 10 27 2 4 -12 33 -4 44 12
5 7 8 7 8 -1 0 -7 5 -13 10 -13 6 0 10 12 10 28 0 21 -2 24 -10 12 -8 -13 -10
-12 -10 3 0 9 4 17 8 17 13 0 11 34 -2 42 -8 5 -7 11 2 20 8 8 12 43 12 100 0
81 -2 88 -20 88 -11 0 -19 3 -18 8 2 4 -5 18 -15 32 -9 13 -17 20 -18 15 -1
-6 -4 1 -8 14 -8 28 -31 41 -31 17z m6 -205 c-4 -5 0 -12 6 -14 8 -3 6 -6 -4
-6 -18 -1 -24 10 -11 22 9 10 15 8 9 -2z"/>
<path d="M5065 5580 c-7 -12 2 -12 30 0 19 8 19 9 -2 9 -12 1 -25 -3 -28 -9z"/>
<path d="M3940 5569 c0 -5 5 -7 10 -4 6 3 10 8 10 11 0 2 -4 4 -10 4 -5 0 -10
-5 -10 -11z"/>
<path d="M6840 5576 c0 -2 7 -6 15 -10 8 -3 15 -1 15 4 0 6 -7 10 -15 10 -8 0
-15 -2 -15 -4z"/>
<path d="M5143 5555 c0 -18 19 -15 25 3 2 7 -3 12 -10 12 -8 0 -15 -7 -15 -15z"/>
<path d="M6820 5525 c0 -8 5 -15 10 -15 6 0 10 7 10 15 0 8 -4 15 -10 15 -5 0
-10 -7 -10 -15z"/>
<path d="M6796 5495 c4 -8 8 -15 10 -15 2 0 4 7 4 15 0 8 -4 15 -10 15 -5 0
-7 -7 -4 -15z"/>
<path d="M6041 5204 c0 -11 3 -14 6 -6 3 7 2 16 -1 19 -3 4 -6 -2 -5 -13z"/>
<path d="M4288 5133 c7 -3 16 -2 19 1 4 3 -2 6 -13 5 -11 0 -14 -3 -6 -6z"/>
<path d="M4061 5000 c0 -29 1 -32 10 -17 7 11 7 23 0 35 -9 14 -10 11 -10 -18z"/>
<path d="M2905 4960 c-5 -8 -15 -25 -23 -37 -13 -21 -12 -23 2 -23 9 0 21 12
27 27 11 30 7 54 -6 33z"/>
<path d="M5348 4929 c-22 -12 -23 -35 -4 -42 10 -4 13 -1 10 7 -3 7 2 21 11
30 18 18 9 21 -17 5z"/>
<path d="M4044 4899 c-16 -18 -26 -20 -79 -15 -34 4 -66 2 -75 -4 -13 -9 -13
-10 0 -10 8 0 33 -9 55 -20 53 -26 75 -26 68 0 -4 13 0 20 9 20 16 0 54 37 46
45 -3 3 -13 -4 -24 -16z"/>
<path d="M2785 4833 c-12 -39 -14 -58 -7 -65 8 -8 14 -4 21 13 5 14 28 42 52
62 24 21 36 35 27 31 -10 -3 -31 -1 -47 4 -29 10 -29 10 -46 -45z"/>
<path d="M5238 4795 c-7 -32 4 -40 20 -15 9 14 8 21 -2 29 -11 9 -15 6 -18
-14z"/>
<path d="M2845 4800 c-3 -5 -2 -10 4 -10 5 0 13 5 16 10 3 6 2 10 -4 10 -5 0
-13 -4 -16 -10z"/>
<path d="M5111 4732 c-2 -95 11 -132 48 -132 21 0 23 -2 11 -11 -11 -8 -9 -9
10 -3 31 8 48 21 62 48 l11 21 -23 -20 c-12 -11 -25 -20 -29 -20 -3 0 -5 -3
-3 -7 5 -18 -22 -6 -49 21 -30 30 -39 82 -21 119 5 10 4 26 -3 39 -10 19 -12
11 -14 -55z"/>
<path d="M1951 4764 c-40 -7 -75 -15 -78 -17 -2 -3 18 -10 44 -16 26 -6 64
-18 83 -25 19 -8 60 -22 90 -31 77 -23 176 -80 227 -131 46 -46 83 -71 83 -55
0 5 -6 16 -13 23 -7 7 -16 21 -20 31 -12 31 -96 144 -120 160 -12 8 -31 24
-43 35 -11 10 -30 24 -41 31 -28 14 -118 12 -212 -5z"/>
<path d="M2310 4762 c0 -13 32 -30 68 -34 43 -6 56 -1 44 19 -6 9 -112 23
-112 15z"/>
<path d="M2674 4745 c8 -8 19 -15 25 -15 17 0 13 17 -5 24 -27 10 -36 7 -20
-9z"/>
<path d="M5140 4715 c0 -8 2 -15 4 -15 2 0 6 7 10 15 3 8 1 15 -4 15 -6 0 -10
-7 -10 -15z"/>
<path d="M5172 4719 c22 -58 21 -62 -7 -57 -17 4 -23 2 -17 -4 6 -6 18 -8 28
-6 23 4 27 69 5 76 -9 3 -12 0 -9 -9z"/>
<path d="M1825 4715 c6 -2 28 -8 50 -14 36 -9 38 -9 21 4 -11 8 -34 15 -50 14
-17 0 -26 -2 -21 -4z"/>
<path d="M5236 4703 c-6 -14 -5 -15 5 -6 7 7 10 15 7 18 -3 3 -9 -2 -12 -12z"/>
<path d="M1460 4668 c0 -19 12 -27 59 -45 32 -13 79 -23 105 -23 25 0 69 -9
98 -20 29 -11 57 -20 63 -20 20 0 -22 28 -68 44 -26 10 -45 22 -41 27 3 5 -5
9 -18 9 -13 0 -47 11 -76 25 -30 14 -69 25 -88 25 -29 0 -34 -4 -34 -22z"/>
<path d="M1700 4640 c0 -6 7 -10 15 -10 8 0 15 2 15 4 0 2 -7 6 -15 10 -8 3
-15 1 -15 -4z"/>
<path d="M5058 4643 c6 -2 18 -2 25 0 6 3 1 5 -13 5 -14 0 -19 -2 -12 -5z"/>
<path d="M3903 4568 c-2 -16 1 -18 10 -9 7 7 8 14 1 21 -6 6 -10 2 -11 -12z"/>
<path d="M1870 4546 c0 -2 7 -7 16 -10 8 -3 12 -2 9 4 -6 10 -25 14 -25 6z"/>
<path d="M1947 4501 c24 -23 33 -26 33 -13 0 5 -12 14 -27 21 l-28 13 22 -21z"/>
<path d="M4880 4354 c-7 -8 -11 -16 -9 -17 7 -6 83 -26 86 -24 1 2 -13 15 -32
30 -29 23 -35 24 -45 11z"/>
<path d="M2299 4337 c-22 -16 -1 -37 26 -26 11 4 14 8 8 8 -7 1 -13 5 -13 10
0 5 8 7 19 4 10 -3 22 0 25 6 10 15 -45 14 -65 -2z"/>
<path d="M4993 4327 c-9 -15 1 -16 27 -2 l25 14 -23 -2 c-13 -1 -26 -5 -29
-10z"/>
<path d="M5005 4290 c3 -5 13 -10 21 -10 8 0 14 5 14 10 0 6 -9 10 -21 10 -11
0 -17 -4 -14 -10z"/>
<path d="M5038 4276 c-24 -18 -23 -22 16 -86 19 -31 37 -67 41 -80 8 -33 93
-78 102 -55 3 8 11 15 18 15 29 0 25 21 -5 26 -22 5 -28 10 -21 17 14 14 14
30 1 22 -26 -16 3 37 45 82 11 12 31 24 45 27 14 2 -6 2 -45 -1 -63 -5 -68 -4
-56 11 8 10 9 16 3 16 -6 0 -13 -4 -16 -8 -3 -5 -20 -7 -38 -5 -19 3 -28 1
-21 -4 6 -5 -7 -8 -32 -8 l-44 0 21 23 c23 24 14 29 -14 8z"/>
<path d="M410 4184 c30 -7 56 -11 58 -9 6 5 -70 25 -93 24 -11 -1 5 -7 35 -15z"/>
<path d="M60 4123 c-18 -5 -55 -53 -41 -53 13 0 68 47 61 52 -3 3 -12 3 -20 1z"/>
<path d="M5218 4054 c-16 -8 -28 -16 -28 -18 0 -3 12 -27 26 -55 l25 -52 18
22 c22 28 16 73 -9 66 -10 -2 -24 -1 -31 4 -10 6 -6 11 14 18 15 6 27 15 27
21 0 13 -10 12 -42 -6z"/>
<path d="M54 4050 c-84 -18 -70 -36 34 -44 48 -4 103 -9 122 -13 27 -4 32 -3
24 6 -6 7 -41 17 -77 24 -37 6 -68 16 -69 22 -2 7 -15 9 -34 5z"/>
<path d="M860 4020 c0 -6 7 -10 15 -10 8 0 15 2 15 4 0 2 -7 6 -15 10 -8 3
-15 1 -15 -4z"/>
<path d="M4370 3988 c0 -26 15 -30 35 -8 16 18 16 20 2 20 -10 0 -17 -6 -17
-12 0 -9 -4 -8 -10 2 -8 13 -10 13 -10 -2z"/>
<path d="M4715 3980 c3 -5 8 -10 11 -10 2 0 4 5 4 10 0 6 -5 10 -11 10 -5 0
-7 -4 -4 -10z"/>
<path d="M5332 3970 c0 -14 2 -19 5 -12 2 6 2 18 0 25 -3 6 -5 1 -5 -13z"/>
<path d="M85 3940 c43 -11 156 -11 130 0 -11 5 -51 8 -90 8 -52 0 -62 -2 -40
-8z"/>
<path d="M30 3919 c0 -3 23 -16 50 -29 28 -13 56 -30 62 -37 6 -7 19 -13 29
-13 11 0 19 -4 19 -10 0 -5 11 -10 24 -10 20 0 24 4 21 20 -2 11 0 18 5 15 5
-3 12 0 16 6 4 8 9 7 15 -2 7 -11 9 -10 9 4 0 9 -6 17 -14 17 -8 0 -21 6 -28
13 -13 13 -208 38 -208 26z"/>
<path d="M5320 3905 c0 -14 4 -25 9 -25 4 0 6 11 3 25 -2 14 -6 25 -8 25 -2 0
-4 -11 -4 -25z"/>
<path d="M5084 3895 c-9 -22 2 -30 26 -19 l20 9 -20 13 c-17 10 -21 10 -26 -3z"/>
<path d="M5280 3875 c0 -5 5 -17 10 -25 5 -8 10 -10 10 -5 0 6 -5 17 -10 25
-5 8 -10 11 -10 5z"/>
<path d="M337 3845 c-4 -9 2 -16 16 -21 12 -3 30 -13 40 -22 18 -16 31 -14 19
4 -4 5 -21 20 -38 32 -26 18 -33 19 -37 7z"/>
<path d="M5265 3794 c0 -41 5 -59 15 -62 12 -4 12 -2 3 8 -7 7 -10 25 -7 39 3
14 1 37 -3 50 -7 18 -9 9 -8 -35z"/>
<path d="M755 3730 c3 -5 16 -15 28 -21 22 -12 22 -12 3 10 -19 21 -43 30 -31
11z"/>
<path d="M871 3724 c0 -11 3 -14 6 -6 3 7 2 16 -1 19 -3 4 -6 -2 -5 -13z"/>
<path d="M0 3677 c0 -2 23 -19 52 -36 28 -18 47 -26 40 -19 -11 14 -92 62 -92
55z"/>
<path d="M5380 3635 c0 -8 7 -15 16 -15 8 0 12 -4 9 -10 -3 -5 -1 -10 4 -10 6
0 11 5 11 11 0 5 6 7 13 4 6 -4 1 3 -12 14 -28 25 -41 27 -41 6z"/>
<path d="M327 3523 c-10 -9 -9 -23 2 -23 5 0 11 7 15 15 5 15 -5 20 -17 8z"/>
<path d="M6071 2973 c-1 -7 -7 -13 -14 -13 -7 0 -23 -7 -36 -16 -21 -15 -21
-18 -7 -26 9 -5 16 -16 16 -25 0 -13 -8 -14 -40 -9 -41 6 -47 2 -29 -24 8 -11
12 -12 16 -2 5 12 43 17 43 5 0 -13 -24 -73 -30 -73 -3 0 -6 -16 -7 -35 -4
-43 5 -45 18 -5 6 17 17 30 25 30 15 0 19 16 5 22 -14 5 16 128 35 142 9 7 14
19 11 27 -4 9 -6 10 -6 2z"/>
<path d="M5968 2923 c7 -3 16 -2 19 1 4 3 -2 6 -13 5 -11 0 -14 -3 -6 -6z"/>
<path d="M5315 2910 c3 -5 8 -10 11 -10 2 0 4 5 4 10 0 6 -5 10 -11 10 -5 0
-7 -4 -4 -10z"/>
<path d="M5316 2817 c3 -10 9 -15 12 -12 3 3 0 11 -7 18 -10 9 -11 8 -5 -6z"/>
<path d="M5350 2825 c0 -5 5 -17 10 -25 5 -8 10 -10 10 -5 0 6 -5 17 -10 25
-5 8 -10 11 -10 5z"/>
<path d="M6306 2784 c-4 -9 -4 -19 -1 -22 2 -3 7 3 11 12 4 9 4 19 1 22 -2 3
-7 -3 -11 -12z"/>
<path d="M5425 2710 c3 -5 8 -10 11 -10 2 0 4 5 4 10 0 6 -5 10 -11 10 -5 0
-7 -4 -4 -10z"/>
<path d="M6220 2634 c-67 -36 -103 -64 -83 -64 6 0 49 23 94 50 94 57 86 67
-11 14z"/>
<path d="M5865 2520 c3 -5 8 -10 11 -10 2 0 4 5 4 10 0 6 -5 10 -11 10 -5 0
-7 -4 -4 -10z"/>
<path d="M5840 2479 c0 -5 5 -7 10 -4 6 3 10 8 10 11 0 2 -4 4 -10 4 -5 0 -10
-5 -10 -11z"/>
<path d="M5780 2289 c0 -5 5 -7 10 -4 6 3 10 8 10 11 0 2 -4 4 -10 4 -5 0 -10
-5 -10 -11z"/>
<path d="M6350 2029 c0 -5 8 -12 18 -18 21 -11 274 -63 279 -57 3 2 -6 16 -18
30 -20 23 -30 26 -88 26 -36 1 -94 7 -128 14 -35 7 -63 10 -63 5z"/>
<path d="M6675 1940 c3 -5 8 -10 11 -10 2 0 4 5 4 10 0 6 -5 10 -11 10 -5 0
-7 -4 -4 -10z"/>
<path d="M6216 1749 c-19 -19 -19 -19 2 -19 12 0 22 -4 22 -9 0 -7 13 -8 77
-2 20 2 4 27 -24 40 -21 10 -28 9 -35 -1 -6 -9 -10 -10 -15 -2 -6 8 -14 5 -27
-7z"/>
<path d="M6866 1525 c7 -19 14 -45 14 -59 0 -14 5 -28 10 -31 6 -3 10 -14 10
-24 0 -9 6 -26 14 -37 12 -16 17 -17 28 -6 11 11 10 13 -2 10 -11 -2 -16 11
-21 52 -6 53 -42 130 -59 130 -5 0 -2 -16 6 -35z"/>
<path d="M5970 1529 c0 -5 5 -7 10 -4 6 3 10 8 10 11 0 2 -4 4 -10 4 -5 0 -10
-5 -10 -11z"/>
<path d="M5996 1482 c-16 -4 -31 -13 -34 -19 -3 -10 21 -13 100 -13 57 0 121
3 143 7 l40 7 -45 8 c-67 12 -171 17 -204 10z"/>
<path d="M6860 1308 c3 -2 23 -15 45 -28 36 -21 38 -21 20 -3 -11 12 -31 24
-45 28 -14 4 -23 5 -20 3z"/>
<path d="M6569 1215 c-9 -9 -117 -35 -147 -36 -17 0 2 -10 55 -28 45 -16 133
-52 195 -80 62 -28 125 -51 140 -51 28 0 84 -22 183 -71 49 -24 61 -27 63 -15
5 21 -16 56 -33 56 -8 0 -15 5 -15 11 0 5 -13 15 -30 20 -16 6 -30 18 -30 27
0 13 -4 12 -22 -4 -12 -10 -19 -14 -15 -8 3 6 -3 18 -13 27 -12 10 -20 12 -22
5 -2 -6 -16 1 -30 15 -15 15 -43 29 -66 33 -30 5 -42 13 -56 38 -10 19 -25 32
-38 33 -12 1 -24 6 -27 10 -3 4 -13 9 -21 9 -8 1 -26 5 -40 8 -14 4 -28 5 -31
1z m121 -55 c0 -5 -4 -10 -10 -10 -5 0 -10 5 -10 10 0 6 5 10 10 10 6 0 10 -4
10 -10z"/>
<path d="M6820 1005 c0 -3 26 -18 58 -34 31 -16 85 -50 120 -75 56 -41 63 -44
60 -25 -2 16 -25 34 -84 65 -87 45 -154 76 -154 69z"/>
<path d="M6425 550 c4 -6 11 -8 16 -5 14 9 11 15 -7 15 -8 0 -12 -5 -9 -10z"/>
</g>
</svg>
